<svg width="16" height="16" viewBox="0 0 16 16" fill="none" xmlns="http://www.w3.org/2000/svg">
<path d="M7.99998 1.33334C11.6666 1.33334 14.6666 4.33334 14.6666 8C14.6666 11.6667 11.6666 14.6667 7.99998 14.6667C4.33331 14.6667 1.33331 11.6667 1.33331 8C1.33331 4.33334 4.33331 1.33334 7.99998 1.33334ZM7.99998 2.66667C6.73331 2.66667 5.59998 3.06667 4.73331 3.8L12.2 11.2667C12.8666 10.3333 13.3333 9.2 13.3333 8C13.3333 5.06667 10.9333 2.66667 7.99998 2.66667ZM11.2666 12.2L3.79998 4.73334C3.06665 5.6 2.66665 6.73334 2.66665 8C2.66665 10.9333 5.06665 13.3333 7.99998 13.3333C9.26665 13.3333 10.4 12.9333 11.2666 12.2Z" fill="#2BB3FF"/>
</svg>
