<svg width="16" height="16" viewBox="0 0 16 16" fill="none" xmlns="http://www.w3.org/2000/svg">
<path d="M7.99998 1.33334C4.33331 1.33334 1.33331 4.33334 1.33331 8C1.33331 11.6667 4.33331 14.6667 7.99998 14.6667C11.6666 14.6667 14.6666 11.6667 14.6666 8C14.6666 4.33334 11.6666 1.33334 7.99998 1.33334ZM7.99998 13.3333C5.05998 13.3333 2.66665 10.94 2.66665 8C2.66665 5.06 5.05998 2.66667 7.99998 2.66667C10.94 2.66667 13.3333 5.06 13.3333 8C13.3333 10.94 10.94 13.3333 7.99998 13.3333ZM11.06 5.05334L6.66665 9.44667L4.93998 7.72667L3.99998 8.66667L6.66665 11.3333L12 6L11.06 5.05334Z" fill="#2BB3FF"/>
</svg>
