<svg width="86" height="86" viewBox="0 0 86 86" fill="none" xmlns="http://www.w3.org/2000/svg">
<path fill-rule="evenodd" clip-rule="evenodd" d="M85.999 43.0971C85.9997 43.0006 86 42.9039 86 42.8072C86 19.1654 66.7482 0 43 0C19.2518 0 2.40373e-09 19.1654 2.40373e-09 42.8072C2.40373e-09 48.1761 0.992853 53.3142 2.80575 58.0493C4.39354 62.3202 6.66347 66.3323 9.54785 69.9235L1.37703 77.8666C0.714009 78.5355 0.264871 79.3848 0.0862875 80.3075C-0.0922958 81.2302 0.00767817 82.1849 0.373595 83.0511C0.73206 83.9197 1.3408 84.6632 2.1231 85.188C2.9054 85.7128 3.82624 85.9953 4.76959 86H42.9957C48.6431 86 54.2352 84.8928 59.4527 82.7415C64.6702 80.5902 69.411 77.4371 73.4043 73.4621C77.3976 69.487 80.5653 64.768 82.7265 59.5744C84.8877 54.3808 86 48.8143 86 43.1928C86 43.1609 85.9997 43.129 85.999 43.0971ZM16.4563 76.4873C16.4246 76.4625 16.3929 76.4376 16.3613 76.4127L16.2852 76.4873H16.4563Z" fill="#3F3EED"/>
<path d="M35.3215 72.8953C33.4018 72.8953 31.4822 72.1274 29.9465 70.5917L14.5893 55.2346C11.5179 52.1631 11.5179 47.556 14.5893 44.4846C17.6608 41.4131 22.6518 41.4131 25.3393 44.4846L35.3215 54.4667L60.6608 29.1274C63.7322 26.056 68.3393 26.056 71.4108 29.1274C74.4822 32.1989 74.4822 36.806 71.4108 39.8774L40.6965 70.5917C39.1608 72.1274 37.2411 72.8953 35.3215 72.8953Z" fill="#2929B3"/>
<path d="M35.3215 69.619C33.4018 69.619 31.4822 68.8512 29.9465 67.3155L14.5893 51.9583C11.5179 48.8869 11.5179 44.2798 14.5893 41.2083C17.6608 38.1369 22.6518 38.1369 25.3393 41.2083L35.3215 51.1905L60.6608 25.8512C63.7322 22.7798 68.3393 22.7798 71.4108 25.8512C74.4822 28.9226 74.4822 33.5297 71.4108 36.6012L40.6965 67.3155C39.1608 68.8512 37.2411 69.619 35.3215 69.619Z" fill="#1FEF6E"/>
</svg>