<svg width="98" height="76" viewBox="0 0 98 76" fill="none" xmlns="http://www.w3.org/2000/svg">
<path d="M17.0046 66.5228C14.2267 68.722 8.74794 71.5386 8.28494 71.3457C7.55187 71.037 7.59046 70.4197 10.3491 68.2591C7.84124 69.2043 3.67431 71.2685 3.32707 70.4968C3.01841 69.8024 9.13376 66.7736 11.6995 64.7094C7.9377 62.5295 -5.35403 55.9705 3.63573 47.1929C6.99242 43.9134 10.5613 44.3571 13.4743 47.2122C14.0145 47.7331 14.5353 48.3504 15.0176 49.0256C14.9405 50.974 15.0948 53.0575 15.5578 55.1988C16.9275 61.565 18.4129 64.1114 18.5865 64.5165C18.7023 64.9795 18.0464 65.6933 17.0046 66.5228Z" fill="#446B12"/>
<path d="M71.7728 70.4776C71.4255 71.2685 67.2586 69.1851 64.7507 68.2398C67.5094 70.4004 67.548 71.0177 66.8149 71.3264C66.3712 71.5193 61.3362 68.9343 58.4617 66.7929C57.2271 65.867 56.3976 65.0181 56.5133 64.4973C56.6869 64.0921 58.1724 61.565 59.5421 55.1796C60.0051 53.0189 60.1594 50.9548 60.0822 49.0063C60.6995 48.1382 61.3747 47.3859 62.0692 46.7685C64.8858 44.2992 68.2617 44.0677 71.4641 47.1736C80.4539 55.9512 67.1814 62.5103 63.4003 64.6902C65.9661 66.7544 72.0814 69.7831 71.7728 70.4776Z" fill="#446B12"/>
<path d="M18.5865 64.5165C18.7022 64.9795 18.0463 65.7126 17.0046 66.5228C16.1751 64.8252 14.7861 61.5843 13.783 56.8772C13.0306 53.4047 13.0499 50.1445 13.4936 47.2122C14.0337 47.7331 14.5546 48.3504 15.0369 49.0256C14.9597 50.974 15.1141 53.0575 15.577 55.1988C16.9274 61.565 18.4129 64.1114 18.5865 64.5165Z" fill="#3C5E10"/>
<path d="M61.8377 56.8579C60.7574 61.8543 59.272 65.1917 58.4617 66.7929C57.2271 65.8669 56.3976 65.0181 56.5133 64.4972C56.6869 64.0921 58.1724 61.5649 59.5421 55.1795C60.0051 53.0189 60.1594 50.9547 60.0822 49.0063C60.6995 48.1382 61.3747 47.3858 62.0692 46.7685C62.5515 49.8358 62.6094 53.2311 61.8377 56.8579Z" fill="#3C5E10"/>
<path d="M56.3976 70.7284C56.4362 71.8858 58.5003 74.1622 57.42 74.4902C56.3204 74.6445 50.8224 71.2685 50.8224 71.2685C50.8224 71.2685 51.131 75.0303 50.4751 75.011C49.2019 74.9725 48.218 72.2524 46.559 69.3973C43.8968 70.5933 40.9452 71.2685 37.82 71.2685C34.6755 71.2685 31.7047 70.5933 29.0232 69.378C27.3641 72.2524 26.3802 74.9917 25.107 75.011C24.4511 75.0303 24.7598 71.2685 24.7598 71.2685C24.7598 71.2685 19.2425 74.6445 18.1621 74.4902C17.0818 74.1622 19.1653 71.8858 19.1846 70.7284C13.9373 73.2362 11.333 73.6414 11.333 73.6414C13.4743 71.0563 17.1783 69.0886 19.0881 67.0051C18.9145 66.6 16.8117 63.1276 15.4421 56.7614C13.5322 47.9067 16.9854 40.441 19.0881 36.9106C19.3389 36.4862 19.5897 36.1004 19.7826 35.7917H19.8984C20.5736 36.2547 21.268 36.7177 22.0011 37.1228C23.9881 38.2417 26.2066 39.1484 28.618 39.8236C31.4732 40.6146 34.5598 41.039 37.8007 41.039C41.0224 41.039 44.0897 40.6146 46.9255 39.8429C46.9255 39.8429 46.9255 39.8429 46.9255 39.8236C49.3369 39.1677 51.5554 38.261 53.5424 37.1228C54.2755 36.7177 54.9893 36.2547 55.6452 35.7917H55.7802C55.9925 36.1004 56.2239 36.4862 56.494 36.9299C58.5968 40.4603 62.0306 47.926 60.1401 56.7614C58.7704 63.1276 56.6677 66.6 56.494 67.0051C58.4039 69.0886 62.1078 71.0563 64.2491 73.6414C64.2491 73.6414 61.6448 73.2362 56.3976 70.7284Z" fill="#678937"/>
<path d="M37.8393 67.7575C43.7524 67.7575 48.546 62.3507 48.546 55.6811C48.546 49.0115 43.7524 43.6047 37.8393 43.6047C31.9261 43.6047 27.1326 49.0115 27.1326 55.6811C27.1326 62.3507 31.9261 67.7575 37.8393 67.7575Z" fill="#89B649"/>
<path d="M37.9743 35.5216C48.8161 35.5216 58.2302 30.8724 63.111 27.0913C63.111 27.0142 63.1881 26.3583 63.1881 25.7602C63.1881 15.8252 51.8255 7.7807 37.82 7.7807C23.8145 7.7807 12.4519 15.8252 12.4519 25.7602C12.4519 26.4354 12.6062 27.1685 12.6062 27.2842C16.7539 30.3516 25.57 35.5216 37.9743 35.5216Z" fill="#89B649"/>
<path d="M56.5133 36.9299C51.7484 40.4217 45.0736 42.6209 37.8393 42.6209C30.5858 42.6209 23.8724 40.4024 19.1074 36.9106C19.3582 36.4862 19.609 36.1004 19.8019 35.7917H19.9177C20.5929 36.2547 21.2873 36.7177 22.0204 37.1228C24.0074 38.2417 26.2259 39.1484 28.6373 39.8236C31.4925 40.6146 34.5791 41.039 37.82 41.039C41.0417 41.039 44.109 40.6146 46.9448 39.8429C46.9448 39.8429 46.9448 39.8429 46.9448 39.8236C49.3562 39.1677 51.5747 38.261 53.5617 37.1228C54.2948 36.7177 55.0086 36.2547 55.6645 35.7917H55.7995C56.0117 36.1197 56.2432 36.4862 56.5133 36.9299Z" fill="#5A7830"/>
<path d="M37.9358 35.4059C21.9432 35.3094 12.4712 26.7634 12.6255 27.2842C15.1527 35.3287 25.7243 41.4827 37.8393 41.4827C50.0314 41.4827 60.6802 35.213 63.1302 27.0913C63.2653 26.609 53.2531 35.5023 37.9358 35.4059Z" fill="#789F40"/>
<path d="M36.3925 9.70984C37.2413 15.8445 32.9393 21.5161 26.8047 22.365C20.6507 23.2138 14.9984 18.9118 14.1496 12.7579C13.3007 6.62322 17.6027 0.951572 23.7566 0.102753C29.8913 -0.726774 35.5436 3.5559 36.3925 9.70984Z" fill="#89B649"/>
<path d="M61.5483 12.5457C60.8153 18.6996 55.2401 23.098 49.0668 22.365C42.9129 21.6319 38.5145 16.0567 39.2475 9.90277C39.9806 3.74883 45.5558 -0.64959 51.7097 0.0834813C57.883 0.816552 62.2814 6.39175 61.5483 12.5457Z" fill="#89B649"/>
<path d="M32.0175 14.3352C32.7425 15.2867 30.5675 18.0961 29.8652 18.7078C28.5284 19.886 26.6027 20.4297 24.8355 20.1578C21.0519 19.5461 18.8089 16.1703 19.0128 12.6133C19.1941 9.23751 21.2331 4.07189 25.3566 3.86798C28.3925 3.73205 31.6097 7.60626 31.9722 10.461L32.0175 14.3352Z" fill="#EDEFF2"/>
<path d="M57.0794 14.1086C58.2349 17.8922 51.7325 20.5883 49.0591 19.886C45.0263 18.8438 43.6443 14.9016 44.188 11.186C44.7091 7.69691 47.1333 4.3891 50.9396 4.72894C53.749 5.00082 57.0341 7.87816 57.0341 10.8914L57.0794 14.1086Z" fill="#EDEFF2"/>
<path d="M31.8583 15.4854C28.3418 19.6847 22.4697 13.2663 26.191 9.44255C30.561 4.90187 33.6336 12.2421 31.8583 15.4854Z" fill="#100F0D"/>
<path d="M57.4265 14.8077C55.6805 18.5202 50.3488 15.8429 51.0659 11.3808C51.9078 6.09759 56.8029 8.20372 57.3642 9.7387C57.9877 11.5236 58.1436 13.2727 57.4265 14.8077Z" fill="#100F0D"/>
<path d="M37.4419 36.5874C31.0698 36.5592 25.767 35.0164 25.4081 34.9315C24.6224 34.7583 24.1156 33.9633 24.3124 33.156C24.4855 32.3703 25.2806 31.8635 26.0878 32.0603C26.2225 32.0893 39.1123 34.3526 47.6109 32.5758C48.4125 32.4095 49.2177 32.6516 49.5219 33.4144C49.8262 34.1772 49.4462 35.0212 48.6834 35.3255C45.5178 36.5598 41.3798 36.773 37.4419 36.5874Z" fill="#E91E1C"/>
<path d="M37.0912 38.4165C32.8501 38.3977 29.3207 37.3708 29.0818 37.3143C28.5588 37.1991 28.2215 36.6699 28.3525 36.1326C28.4677 35.6097 28.9969 35.2723 29.5342 35.4033C29.6238 35.4226 38.203 36.929 43.8594 35.7464C44.393 35.6357 44.9289 35.7969 45.1314 36.3046C45.3339 36.8123 45.081 37.374 44.5733 37.5765C42.4663 38.3981 39.7121 38.54 37.0912 38.4165Z" fill="#E91E1C"/>
<path d="M74.9149 19.8951C74.6219 19.7897 74.3125 19.7392 74.0019 19.7325C73.3177 19.7127 72.6494 19.9249 72.0946 20.3312C72.0509 20.2962 71.9974 20.265 71.9487 20.2349C71.9 20.2038 71.8128 20.1285 71.7397 20.0875L71.5542 19.9997C71.4567 19.9434 71.3546 19.9017 71.2464 19.8644C71.2368 19.8548 71.2222 19.8442 71.2027 19.8344L71.1736 19.8338C70.8845 19.7285 70.5853 19.6678 70.2753 19.6517L70.2212 19.6505C70.0833 19.6475 69.9458 19.6539 69.8071 19.6711L69.748 19.6698C69.6 19.6858 69.4521 19.7171 69.3084 19.7633C67.4605 20.3248 66.7683 22.3053 67.2919 24.0609C67.5903 24.9587 68.0827 25.7779 68.7299 26.4566C69.672 27.4033 70.7058 28.2436 71.8195 28.9674L71.946 29.0494L72.0705 28.9777C73.2066 28.2978 74.265 27.5028 75.2329 26.6024C75.9094 25.9524 76.4317 25.1503 76.7586 24.266C77.3382 22.5344 76.7208 20.5255 74.9149 19.8951Z" fill="url(#paint0_linear_1430_70)"/>
<path d="M93.9536 7.74573C93.5608 7.35894 93.1012 7.04819 92.6069 6.80689C91.5219 6.26751 90.2902 6.11265 89.0971 6.35407C89.0528 6.26551 88.9899 6.17558 88.934 6.09103C88.8788 6.00492 88.7945 5.81916 88.7074 5.69902L88.4744 5.4203C88.3596 5.2575 88.2263 5.11479 88.0801 4.97456C88.0717 4.95201 88.0562 4.92405 88.0321 4.89385L87.9859 4.87129C87.5993 4.48755 87.1633 4.16796 86.6771 3.91214L86.5909 3.87008C86.3716 3.76301 86.1458 3.67123 85.9101 3.59595L85.8161 3.55006C85.5662 3.46595 85.3054 3.40655 85.0402 3.37413C81.6533 2.9056 79.0714 5.57532 78.6105 8.78551C78.4239 10.4499 78.6076 12.1319 79.1443 13.703C79.9561 15.9237 80.9942 18.0413 82.2472 20.0309L82.3897 20.2567L82.6429 20.2338C84.9735 19.9839 87.2646 19.4914 89.4883 18.7623C91.058 18.2195 92.4926 17.3178 93.674 16.139C95.8904 13.7858 96.3886 10.0989 93.9536 7.74573Z" fill="url(#paint1_linear_1430_70)"/>
<defs>
<linearGradient id="paint0_linear_1430_70" x1="76.6601" y1="21.7001" x2="67.4971" y2="24.8057" gradientUnits="userSpaceOnUse">
<stop stop-color="#FBB4B0"/>
<stop offset="1" stop-color="#F64439"/>
</linearGradient>
<linearGradient id="paint1_linear_1430_70" x1="95.4195" y1="11.9418" x2="78.3876" y2="10.1348" gradientUnits="userSpaceOnUse">
<stop stop-color="#FBB4B0"/>
<stop offset="1" stop-color="#F64439"/>
</linearGradient>
</defs>
</svg>
