<svg width="120" height="82" viewBox="0 0 120 82" fill="none" xmlns="http://www.w3.org/2000/svg">
<path d="M27.3815 73.3056C24.6036 75.5048 19.1248 78.3213 18.6618 78.1284C17.9288 77.8198 17.9673 77.2024 20.726 75.0418C18.2181 75.9871 14.0512 78.0513 13.704 77.2796C13.3953 76.5851 19.5107 73.5564 22.0764 71.4922C18.3146 69.3123 5.02286 62.7532 14.0126 53.9757C17.3693 50.6961 20.9382 51.1398 23.8512 53.995C24.3914 54.5158 24.9122 55.1331 25.3945 55.8083C25.3173 57.7568 25.4717 59.8402 25.9347 61.9816C27.3044 68.3477 28.7898 70.8942 28.9634 71.2993C29.0792 71.7623 28.4233 72.4761 27.3815 73.3056Z" fill="#446B12"/>
<path d="M82.1496 77.2603C81.8024 78.0513 77.6354 75.9678 75.1276 75.0225C77.8862 77.1832 77.9248 77.8005 77.1917 78.1091C76.748 78.3021 71.713 75.717 68.8386 73.5757C67.6039 72.6497 66.7744 71.8009 66.8902 71.28C67.0638 70.8749 68.5492 68.3477 69.9189 61.9623C70.3819 59.8017 70.5362 57.7375 70.459 55.7891C71.0764 54.921 71.7516 54.1686 72.4461 53.5513C75.2626 51.082 78.6386 50.8505 81.8409 53.9564C90.8307 62.7339 77.5583 69.293 73.7772 71.4729C76.3429 73.5371 82.4583 76.5658 82.1496 77.2603Z" fill="#446B12"/>
<path d="M28.9634 71.2993C29.0791 71.7623 28.4232 72.4953 27.3815 73.3056C26.552 71.6079 25.163 68.367 24.1598 63.6599C23.4075 60.1875 23.4268 56.9272 23.8705 53.9949C24.4106 54.5158 24.9315 55.1331 25.4138 55.8083C25.3366 57.7568 25.4909 59.8402 25.9539 61.9816C27.3043 68.3477 28.7898 70.8942 28.9634 71.2993Z" fill="#3C5E10"/>
<path d="M72.2146 63.6406C71.1343 68.637 69.6488 71.9745 68.8386 73.5756C67.6039 72.6496 66.7744 71.8008 66.8902 71.28C67.0638 70.8748 68.5492 68.3477 69.9189 61.9622C70.3819 59.8016 70.5362 57.7374 70.459 55.789C71.0764 54.9209 71.7516 54.1685 72.4461 53.5512C72.9283 56.6185 72.9862 60.0138 72.2146 63.6406Z" fill="#3C5E10"/>
<path d="M66.7745 77.5111C66.813 78.6686 68.8772 80.945 67.7969 81.2729C66.6973 81.4272 61.1993 78.0513 61.1993 78.0513C61.1993 78.0513 61.5079 81.8131 60.852 81.7938C59.5788 81.7552 58.5949 79.0351 56.9359 76.18C54.2737 77.3761 51.3221 78.0513 48.1969 78.0513C45.0524 78.0513 42.0815 77.3761 39.4001 76.1607C37.741 79.0351 36.7571 81.7745 35.4839 81.7938C34.828 81.8131 35.1367 78.0513 35.1367 78.0513C35.1367 78.0513 29.6193 81.4272 28.539 81.2729C27.4587 80.945 29.5422 78.6686 29.5615 77.5111C24.3142 80.019 21.7099 80.4241 21.7099 80.4241C23.8512 77.8391 27.5552 75.8713 29.465 73.7879C29.2914 73.3828 27.1886 69.9103 25.819 63.5442C23.9091 54.6894 27.3623 47.2237 29.465 43.6934C29.7158 43.269 29.9666 42.8832 30.1595 42.5745H30.2753C30.9504 43.0375 31.6449 43.5005 32.378 43.9056C34.365 45.0245 36.5835 45.9312 38.9949 46.6064C41.8501 47.3973 44.9367 47.8217 48.1776 47.8217C51.3993 47.8217 54.4666 47.3973 57.3024 46.6257C57.3024 46.6257 57.3024 46.6257 57.3024 46.6064C59.7138 45.9505 61.9323 45.0438 63.9193 43.9056C64.6524 43.5005 65.3662 43.0375 66.0221 42.5745H66.1571C66.3693 42.8832 66.6008 43.269 66.8709 43.7127C68.9737 47.243 72.4075 54.7087 70.517 63.5442C69.1473 69.9103 67.0445 73.3828 66.8709 73.7879C68.7808 75.8713 72.4847 77.8391 74.626 80.4241C74.626 80.4241 72.0217 80.019 66.7745 77.5111Z" fill="#678937"/>
<path d="M48.2162 74.5402C54.1293 74.5402 58.9228 69.1335 58.9228 62.4639C58.9228 55.7943 54.1293 50.3875 48.2162 50.3875C42.303 50.3875 37.5095 55.7943 37.5095 62.4639C37.5095 69.1335 42.303 74.5402 48.2162 74.5402Z" fill="#89B649"/>
<path d="M48.3512 42.3045C59.1929 42.3045 68.6071 37.6553 73.4878 33.8741C73.4878 33.797 73.565 33.1411 73.565 32.543C73.565 22.608 62.2024 14.5635 48.1968 14.5635C34.1913 14.5635 22.8287 22.608 22.8287 32.543C22.8287 33.2182 22.9831 33.9513 22.9831 34.0671C27.1307 37.1344 35.9468 42.3045 48.3512 42.3045Z" fill="#89B649"/>
<path d="M66.8902 43.7127C62.1252 47.2045 55.4504 49.4037 48.2161 49.4037C40.9626 49.4037 34.2492 47.1852 29.4843 43.6934C29.735 43.269 29.9858 42.8832 30.1787 42.5745H30.2945C30.9697 43.0375 31.6642 43.5005 32.3972 43.9056C34.3843 45.0245 36.6028 45.9312 39.0142 46.6064C41.8693 47.3974 44.9559 47.8218 48.1968 47.8218C51.4185 47.8218 54.4858 47.3974 57.3217 46.6257C57.3217 46.6257 57.3217 46.6257 57.3217 46.6064C59.7331 45.9505 61.9516 45.0438 63.9386 43.9056C64.6716 43.5005 65.3854 43.0375 66.0413 42.5745H66.1764C66.3886 42.9025 66.6201 43.269 66.8902 43.7127Z" fill="#5A7830"/>
<path d="M48.3126 42.1887C32.3201 42.0923 22.8481 33.5462 23.0024 34.0671C25.5296 42.1116 36.1012 48.2655 48.2162 48.2655C60.4083 48.2655 71.0571 41.9958 73.5071 33.8742C73.6422 33.3919 63.63 42.2852 48.3126 42.1887Z" fill="#789F40"/>
<path d="M46.7693 16.4926C47.6181 22.6273 43.3161 28.2989 37.1815 29.1478C31.0276 29.9966 25.3752 25.6946 24.5264 19.5407C23.6776 13.406 27.9795 7.73437 34.1335 6.88555C40.2681 6.05602 45.9205 10.3387 46.7693 16.4926Z" fill="#89B649"/>
<path d="M42.5638 17.0714C43.0847 20.8911 40.4225 24.4214 36.6028 24.9422C32.7831 25.4631 29.2528 22.8009 28.7319 18.9812C28.2111 15.1615 30.8733 11.6312 34.693 11.1103C38.5127 10.5702 42.043 13.2517 42.5638 17.0714Z" fill="white"/>
<path d="M39.9787 17.3993C40.3067 19.8493 38.5898 22.1064 36.1398 22.4537C33.6898 22.7816 31.4327 21.0647 31.0854 18.6147C30.7575 16.1647 32.4744 13.9076 34.9244 13.5604C37.3744 13.2324 39.6315 14.9493 39.9787 17.3993Z" fill="#383838"/>
<path d="M71.9252 19.3285C71.1922 25.4824 65.617 29.8808 59.4437 29.1478C53.2898 28.4147 48.8914 22.8395 49.6244 16.6856C50.3575 10.5316 55.9327 6.1332 62.0866 6.86627C68.2599 7.59934 72.6583 13.1745 71.9252 19.3285Z" fill="#89B649"/>
<path d="M67.7004 18.8462C67.2567 22.6851 63.765 25.4052 59.9453 24.9615C56.1063 24.4985 53.3862 21.0261 53.8299 17.2064C54.2929 13.3867 57.7654 10.6473 61.585 11.091C65.424 11.5347 68.1634 15.0072 67.7004 18.8462Z" fill="white"/>
<path d="M65.2697 18.5375C64.9803 21.0068 62.7425 22.7623 60.2925 22.4729C57.8232 22.1836 56.0677 19.9458 56.3764 17.4958C56.6658 15.0265 58.9036 13.271 61.3536 13.5796C63.8036 13.8497 65.5591 16.0875 65.2697 18.5375Z" fill="#383838"/>
<path d="M91.4344 14.8873C93.3833 13.3432 96.2569 14.7041 96.297 17.1903L96.4519 26.7738C96.4678 27.7611 96.9686 28.6773 97.7909 29.2239L105.773 34.5294C107.844 35.9057 107.438 39.0592 105.086 39.8657L96.0192 42.9744C95.0852 43.2947 94.3685 44.054 94.1028 45.005L91.5237 54.2363C90.8547 56.6311 87.73 57.2191 86.2361 55.2314L80.4778 47.5691C79.8846 46.7798 78.9409 46.3329 77.9544 46.3741L68.3779 46.7739C65.8936 46.8776 64.3687 44.0875 65.7976 42.0526L71.3054 34.2083C71.8728 33.4002 72.0062 32.3646 71.6622 31.4391L68.3227 22.4549C67.4564 20.1242 69.6386 17.8118 72.0155 18.5418L81.1779 21.356C82.1218 21.646 83.1479 21.4528 83.9218 20.8397L91.4344 14.8873Z" fill="url(#paint0_linear_336_454)"/>
<path d="M91.4344 14.8873C93.3833 13.3432 96.2569 14.7041 96.297 17.1903L96.4519 26.7738C96.4678 27.7611 96.9686 28.6773 97.7909 29.2239L105.773 34.5294C107.844 35.9057 107.438 39.0592 105.086 39.8657L96.0192 42.9744C95.0852 43.2947 94.3685 44.054 94.1028 45.005L91.5237 54.2363C90.8547 56.6311 87.73 57.2191 86.2361 55.2314L80.4778 47.5691C79.8846 46.7798 78.9409 46.3329 77.9544 46.3741L68.3779 46.7739C65.8936 46.8776 64.3687 44.0875 65.7976 42.0526L71.3054 34.2083C71.8728 33.4002 72.0062 32.3646 71.6622 31.4391L68.3227 22.4549C67.4564 20.1242 69.6386 17.8118 72.0155 18.5418L81.1779 21.356C82.1218 21.646 83.1479 21.4528 83.9218 20.8397L91.4344 14.8873Z" fill="url(#paint1_linear_336_454)"/>
<path d="M91.4344 14.8873C93.3833 13.3432 96.2569 14.7041 96.297 17.1903L96.4519 26.7738C96.4678 27.7611 96.9686 28.6773 97.7909 29.2239L105.773 34.5294C107.844 35.9057 107.438 39.0592 105.086 39.8657L96.0192 42.9744C95.0852 43.2947 94.3685 44.054 94.1028 45.005L91.5237 54.2363C90.8547 56.6311 87.73 57.2191 86.2361 55.2314L80.4778 47.5691C79.8846 46.7798 78.9409 46.3329 77.9544 46.3741L68.3779 46.7739C65.8936 46.8776 64.3687 44.0875 65.7976 42.0526L71.3054 34.2083C71.8728 33.4002 72.0062 32.3646 71.6622 31.4391L68.3227 22.4549C67.4564 20.1242 69.6386 17.8118 72.0155 18.5418L81.1779 21.356C82.1218 21.646 83.1479 21.4528 83.9218 20.8397L91.4344 14.8873Z" fill="url(#paint2_linear_336_454)"/>
<path d="M8.64806 17.7388C8.66077 16.9101 9.61825 16.4557 10.2683 16.9698L13.0761 19.1907C13.3342 19.3949 13.6763 19.459 13.9908 19.3621L17.4121 18.3081C18.2042 18.0641 18.9323 18.8343 18.6441 19.6115L17.3996 22.9681C17.2852 23.2767 17.33 23.6218 17.5193 23.891L19.5789 26.8191C20.0557 27.4971 19.5482 28.4275 18.7201 28.3936L15.1432 28.2473C14.8143 28.2338 14.4999 28.383 14.3024 28.6463L12.154 31.5099C11.6566 32.1729 10.6149 31.9778 10.3912 31.1797L9.42505 27.7326C9.33623 27.4157 9.09714 27.1628 8.78572 27.0563L5.39838 25.898C4.61414 25.6298 4.47782 24.5788 5.16772 24.1194L8.14752 22.1353C8.42148 21.9529 8.58814 21.6474 8.59319 21.3183L8.64806 17.7388Z" fill="url(#paint3_linear_336_454)"/>
<path d="M8.64806 17.7388C8.66077 16.9101 9.61825 16.4557 10.2683 16.9698L13.0761 19.1907C13.3342 19.3949 13.6763 19.459 13.9908 19.3621L17.4121 18.3081C18.2042 18.0641 18.9323 18.8343 18.6441 19.6115L17.3996 22.9681C17.2852 23.2767 17.33 23.6218 17.5193 23.891L19.5789 26.8191C20.0557 27.4971 19.5482 28.4275 18.7201 28.3936L15.1432 28.2473C14.8143 28.2338 14.4999 28.383 14.3024 28.6463L12.154 31.5099C11.6566 32.1729 10.6149 31.9778 10.3912 31.1797L9.42505 27.7326C9.33623 27.4157 9.09714 27.1628 8.78572 27.0563L5.39838 25.898C4.61414 25.6298 4.47782 24.5788 5.16772 24.1194L8.14752 22.1353C8.42148 21.9529 8.58814 21.6474 8.59319 21.3183L8.64806 17.7388Z" fill="url(#paint4_linear_336_454)"/>
<path d="M8.64806 17.7388C8.66077 16.9101 9.61825 16.4557 10.2683 16.9698L13.0761 19.1907C13.3342 19.3949 13.6763 19.459 13.9908 19.3621L17.4121 18.3081C18.2042 18.0641 18.9323 18.8343 18.6441 19.6115L17.3996 22.9681C17.2852 23.2767 17.33 23.6218 17.5193 23.891L19.5789 26.8191C20.0557 27.4971 19.5482 28.4275 18.7201 28.3936L15.1432 28.2473C14.8143 28.2338 14.4999 28.383 14.3024 28.6463L12.154 31.5099C11.6566 32.1729 10.6149 31.9778 10.3912 31.1797L9.42505 27.7326C9.33623 27.4157 9.09714 27.1628 8.78572 27.0563L5.39838 25.898C4.61414 25.6298 4.47782 24.5788 5.16772 24.1194L8.14752 22.1353C8.42148 21.9529 8.58814 21.6474 8.59319 21.3183L8.64806 17.7388Z" fill="url(#paint5_linear_336_454)"/>
<defs>
<linearGradient id="paint0_linear_336_454" x1="113.532" y1="31.0535" x2="62.5173" y2="25.3073" gradientUnits="userSpaceOnUse">
<stop stop-color="#FBF4B0"/>
<stop offset="1" stop-color="#F6B639"/>
</linearGradient>
<linearGradient id="paint1_linear_336_454" x1="113.532" y1="31.0535" x2="62.5173" y2="25.3073" gradientUnits="userSpaceOnUse">
<stop stop-color="#FBF4B0"/>
<stop offset="1" stop-color="#F6B639"/>
</linearGradient>
<linearGradient id="paint2_linear_336_454" x1="113.532" y1="31.0535" x2="62.5173" y2="25.3073" gradientUnits="userSpaceOnUse">
<stop stop-color="#FBF4B0"/>
<stop offset="1" stop-color="#F6B639"/>
</linearGradient>
<linearGradient id="paint3_linear_336_454" x1="18.072" y1="15.4292" x2="5.00534" y2="28.1825" gradientUnits="userSpaceOnUse">
<stop stop-color="#FBF4B0"/>
<stop offset="1" stop-color="#F6B639"/>
</linearGradient>
<linearGradient id="paint4_linear_336_454" x1="18.072" y1="15.4292" x2="5.00534" y2="28.1825" gradientUnits="userSpaceOnUse">
<stop stop-color="#FBF4B0"/>
<stop offset="1" stop-color="#F6B639"/>
</linearGradient>
<linearGradient id="paint5_linear_336_454" x1="18.072" y1="15.4292" x2="5.00534" y2="28.1825" gradientUnits="userSpaceOnUse">
<stop stop-color="#FBF4B0"/>
<stop offset="1" stop-color="#F6B639"/>
</linearGradient>
</defs>
</svg>
