<svg width="99" height="76" viewBox="0 0 99 76" fill="none" xmlns="http://www.w3.org/2000/svg">
<path d="M16.4319 66.5228C13.6539 68.722 8.17518 71.5385 7.71219 71.3456C6.97912 71.037 7.0177 70.4196 9.77636 68.259C7.26849 69.2043 3.10156 71.2684 2.75432 70.4968C2.44566 69.8023 8.56101 66.7736 11.1268 64.7094C7.36495 62.5295 -5.92679 55.9704 3.06298 47.1929C6.41967 43.9133 9.98857 44.357 12.9016 47.2121C13.4417 47.733 13.9626 48.3503 14.4449 49.0255C14.3677 50.974 14.522 53.0574 14.985 55.1988C16.3547 61.5649 17.8401 64.1114 18.0138 64.5165C18.1295 64.9795 17.4736 65.6932 16.4319 66.5228Z" fill="#446B12"/>
<path d="M71.2 70.4775C70.8527 71.2685 66.6858 69.185 64.1779 68.2397C66.9366 70.4004 66.9752 71.0177 66.2421 71.3263C65.7984 71.5193 60.7633 68.9342 57.8889 66.7929C56.6543 65.8669 55.8248 65.0181 55.9405 64.4972C56.1141 64.0921 57.5996 61.5649 58.9692 55.1795C59.4322 53.0189 59.5866 50.9547 59.5094 49.0063C60.1267 48.1382 60.8019 47.3858 61.4964 46.7685C64.3129 44.2992 67.6889 44.0677 70.8913 47.1736C79.8811 55.9511 66.6086 62.5102 62.8275 64.6901C65.3933 66.7543 71.5086 69.783 71.2 70.4775Z" fill="#446B12"/>
<path d="M18.0137 64.5165C18.1295 64.9794 17.4736 65.7125 16.4319 66.5228C15.6023 64.8251 14.2133 61.5842 13.2102 56.8771C12.4578 53.4046 12.4771 50.1444 12.9208 47.2121C13.461 47.733 13.9818 48.3503 14.4641 49.0255C14.387 50.9739 14.5413 53.0574 15.0043 55.1987C16.3547 61.5649 17.8401 64.1113 18.0137 64.5165Z" fill="#3C5E10"/>
<path d="M61.2649 56.8578C60.1846 61.8543 58.6992 65.1917 57.8889 66.7928C56.6543 65.8669 55.8248 65.018 55.9405 64.4972C56.1141 64.0921 57.5996 61.5649 58.9692 55.1795C59.4322 53.0188 59.5866 50.9547 59.5094 49.0062C60.1267 48.1381 60.8019 47.3858 61.4964 46.7684C61.9787 49.8358 62.0366 53.231 61.2649 56.8578Z" fill="#3C5E10"/>
<path d="M55.8248 70.7283C55.8634 71.8858 57.9276 74.1622 56.8473 74.4901C55.7477 74.6444 50.2496 71.2684 50.2496 71.2684C50.2496 71.2684 50.5583 75.0303 49.9024 75.011C48.6291 74.9724 47.6453 72.2523 45.9862 69.3972C43.324 70.5933 40.3725 71.2684 37.2473 71.2684C34.1028 71.2684 31.1319 70.5933 28.4504 69.3779C26.7914 72.2523 25.8075 74.9917 24.5343 75.011C23.8784 75.0303 24.187 71.2684 24.187 71.2684C24.187 71.2684 18.6697 74.6444 17.5894 74.4901C16.5091 74.1622 18.5925 71.8858 18.6118 70.7283C13.3646 73.2362 10.7603 73.6413 10.7603 73.6413C12.9016 71.0563 16.6055 69.0885 18.5154 67.0051C18.3417 66.5999 16.239 63.1275 14.8693 56.7614C12.9595 47.9066 16.4126 40.4409 18.5154 36.9106C18.7662 36.4862 19.0169 36.1003 19.2099 35.7917H19.3256C20.0008 36.2547 20.6953 36.7177 21.4284 37.1228C23.4154 38.2417 25.6339 39.1484 28.0453 39.8236C30.9004 40.6145 33.987 41.0389 37.228 41.0389C40.4496 41.0389 43.5169 40.6145 46.3528 39.8429C46.3528 39.8429 46.3528 39.8429 46.3528 39.8236C48.7642 39.1677 50.9827 38.261 52.9697 37.1228C53.7028 36.7177 54.4165 36.2547 55.0725 35.7917H55.2075C55.4197 36.1003 55.6512 36.4862 55.9213 36.9299C58.024 40.4602 61.4579 47.9259 59.5673 56.7614C58.1976 63.1275 56.0949 66.5999 55.9213 67.0051C57.8311 69.0885 61.5351 71.0563 63.6764 73.6413C63.6764 73.6413 61.0721 73.2362 55.8248 70.7283Z" fill="#678937"/>
<path d="M37.2665 67.7574C43.1796 67.7574 47.9732 62.3506 47.9732 55.681C47.9732 49.0114 43.1796 43.6047 37.2665 43.6047C31.3534 43.6047 26.5598 49.0114 26.5598 55.681C26.5598 62.3506 31.3534 67.7574 37.2665 67.7574Z" fill="#89B649"/>
<path d="M37.4015 35.5217C48.2433 35.5217 57.6574 30.8725 62.5381 27.0914C62.5381 27.0142 62.6153 26.3583 62.6153 25.7603C62.6153 15.8252 51.2527 7.78073 37.2472 7.78073C23.2417 7.78073 11.8791 15.8252 11.8791 25.7603C11.8791 26.4355 12.0334 27.1685 12.0334 27.2843C16.1811 30.3516 24.9972 35.5217 37.4015 35.5217Z" fill="#89B649"/>
<path d="M55.9405 36.9299C51.1755 40.4217 44.5007 42.6209 37.2665 42.6209C30.013 42.6209 23.2996 40.4024 18.5346 36.9106C18.7854 36.4862 19.0362 36.1004 19.2291 35.7917H19.3448C20.02 36.2547 20.7145 36.7177 21.4476 37.1228C23.4346 38.2417 25.6531 39.1484 28.0645 39.8236C30.9196 40.6146 34.0063 41.039 37.2472 41.039C40.4689 41.039 43.5362 40.6146 46.372 39.8429C46.372 39.8429 46.372 39.8429 46.372 39.8236C48.7834 39.1677 51.0019 38.261 52.9889 37.1228C53.722 36.7177 54.4358 36.2547 55.0917 35.7917H55.2267C55.4389 36.1197 55.6704 36.4862 55.9405 36.9299Z" fill="#5A7830"/>
<path d="M37.363 35.4059C21.3705 35.3095 11.8984 26.7634 12.0528 27.2843C14.5799 35.3288 25.1516 41.4827 37.2665 41.4827C49.4587 41.4827 60.1075 35.213 62.5575 27.0914C62.6925 26.6091 52.6803 35.5024 37.363 35.4059Z" fill="#789F40"/>
<path d="M35.8197 9.70984C36.6685 15.8445 32.3665 21.5161 26.2319 22.365C20.0779 23.2138 14.4256 18.9118 13.5767 12.7579C12.7279 6.62322 17.0299 0.951572 23.1838 0.102753C29.3185 -0.726774 34.9708 3.5559 35.8197 9.70984Z" fill="#89B649"/>
<path d="M31.6142 10.2886C32.1351 14.1083 29.4729 17.6386 25.6532 18.1595C21.8335 18.6803 18.3032 16.0181 17.7823 12.1984C17.2614 8.37875 19.9236 4.84843 23.7433 4.32757C27.563 3.78741 31.0933 6.4689 31.6142 10.2886Z" fill="white"/>
<path d="M29.0291 10.6166C29.357 13.0666 27.6401 15.3236 25.1901 15.6709C22.7401 15.9988 20.483 14.2819 20.1358 11.8319C19.8078 9.38191 21.5248 7.12482 23.9748 6.77758C26.4248 6.44963 28.6819 8.16655 29.0291 10.6166Z" fill="#383838"/>
<path d="M60.9756 12.5457C60.2425 18.6996 54.6673 23.098 48.4941 22.365C42.3401 21.6319 37.9417 16.0567 38.6748 9.90277C39.4079 3.74883 44.9831 -0.64959 51.137 0.0834813C57.3102 0.816552 61.7087 6.39175 60.9756 12.5457Z" fill="#89B649"/>
<path d="M56.7508 12.0634C56.3071 15.9024 52.8153 18.6224 48.9956 18.1787C45.1567 17.7157 42.4366 14.2433 42.8803 10.4236C43.3433 6.60393 46.8157 3.86456 50.6354 4.30826C54.4744 4.75196 57.2137 8.22441 56.7508 12.0634Z" fill="white"/>
<path d="M54.3201 11.7547C54.0307 14.224 51.7929 15.9795 49.3429 15.6901C46.8736 15.4008 45.1181 13.163 45.4267 10.713C45.7161 8.24368 47.9539 6.48817 50.4039 6.79683C52.8539 7.06691 54.6094 9.30471 54.3201 11.7547Z" fill="#383838"/>
<path d="M90.4746 23.1046C89.5611 22.0316 88.4604 21.1372 87.2559 20.4118C84.6141 18.7948 81.5129 18.1239 78.421 18.4705C78.3281 18.2351 78.1879 17.992 78.0645 17.7642C77.9434 17.5325 77.7703 17.0406 77.5755 16.7152L77.0446 15.9532C76.7887 15.5129 76.4813 15.1197 76.1406 14.7298C76.1242 14.6705 76.091 14.5958 76.0363 14.5135L75.9237 14.4457C75.0256 13.3819 73.987 12.4703 72.8062 11.7097L72.5962 11.5832C72.0618 11.2614 71.5075 10.977 70.9242 10.7324L70.6951 10.5944C70.0779 10.3242 69.4271 10.1143 68.7591 9.97221C60.2405 8.01852 53.0688 14.2357 51.1761 22.3053C50.3283 26.5009 50.419 30.8247 51.4336 34.9452C53.0032 40.7813 55.1719 46.406 57.9167 51.7532L58.2289 52.36L58.8788 52.3586C64.8687 52.2457 70.8124 51.5067 76.6376 50.1499C80.7558 49.1205 84.6105 47.1469 87.8825 44.4112C94.0529 38.9177 96.1472 29.6428 90.4746 23.1046Z" fill="url(#paint0_linear_322_200)"/>
<path d="M85.1285 3.52099C84.9066 3.3025 84.647 3.12696 84.3678 2.99066C83.7549 2.68597 83.0591 2.59849 82.3852 2.73487C82.3602 2.68484 82.3246 2.63404 82.293 2.58628C82.2619 2.53764 82.2142 2.43271 82.165 2.36484L82.0334 2.2074C81.9685 2.11543 81.8932 2.03482 81.8107 1.95561C81.8059 1.94287 81.7972 1.92708 81.7835 1.91002L81.7574 1.89727C81.5391 1.68051 81.2928 1.49998 81.0181 1.35547L80.9695 1.33171C80.8456 1.27123 80.718 1.21938 80.5849 1.17686L80.5318 1.15094C80.3906 1.10342 80.2433 1.06987 80.0935 1.05156C78.1803 0.786896 76.7219 2.29497 76.4615 4.10834C76.3561 5.04852 76.4598 5.99868 76.763 6.88614C77.2216 8.14055 77.808 9.33674 78.5158 10.4607L78.5963 10.5882L78.7393 10.5753C80.0558 10.4341 81.35 10.1559 82.6061 9.74405C83.4928 9.43744 84.3032 8.92804 84.9706 8.2622C86.2226 6.9329 86.504 4.85024 85.1285 3.52099Z" fill="url(#paint1_linear_322_200)"/>
<defs>
<linearGradient id="paint0_linear_322_200" x1="93.265" y1="34.119" x2="50.3046" y2="25.7062" gradientUnits="userSpaceOnUse">
<stop stop-color="#FBB4B0"/>
<stop offset="1" stop-color="#F64439"/>
</linearGradient>
<linearGradient id="paint1_linear_322_200" x1="85.9566" y1="5.89124" x2="76.3356" y2="4.87052" gradientUnits="userSpaceOnUse">
<stop stop-color="#FBB4B0"/>
<stop offset="1" stop-color="#F64439"/>
</linearGradient>
</defs>
</svg>
