<svg width="98" height="79" viewBox="0 0 98 79" fill="none" xmlns="http://www.w3.org/2000/svg">
<path d="M17.9614 69.9816C15.0282 72.2952 9.24321 75.2582 8.75434 75.0552C7.9803 74.7305 8.02104 74.0811 10.9339 71.8081C8.28584 72.8026 3.88602 74.974 3.51937 74.1623C3.19346 73.4317 9.6506 70.2455 12.3598 68.074C8.38769 65.7807 -5.64692 58.8806 3.84528 49.6467C7.38958 46.1966 11.158 46.6634 14.2338 49.667C14.8041 50.2149 15.3541 50.8643 15.8633 51.5746C15.7818 53.6244 15.9448 55.8162 16.4337 58.0688C17.8799 64.766 19.4484 67.4448 19.6317 67.871C19.7539 68.3581 19.0613 69.109 17.9614 69.9816Z" fill="#446B12"/>
<path d="M75.7905 74.1421C75.4238 74.9741 71.024 72.7824 68.376 71.7879C71.2888 74.0609 71.3296 74.7103 70.5555 75.035C70.087 75.238 64.7706 72.5185 61.7355 70.2659C60.4318 69.2917 59.556 68.3988 59.6782 67.8508C59.8615 67.4246 61.43 64.7661 62.8762 58.0486C63.3651 55.7757 63.528 53.6042 63.4465 51.5544C64.0984 50.6412 64.8113 49.8497 65.5446 49.2003C68.5186 46.6026 72.0832 46.3591 75.4646 49.6265C84.9568 58.8604 70.9425 65.7605 66.9501 68.0538C69.6593 70.2253 76.1164 73.4115 75.7905 74.1421Z" fill="#446B12"/>
<path d="M19.6316 67.871C19.7538 68.3581 19.0613 69.1293 17.9613 69.9817C17.0854 68.1958 15.6188 64.7863 14.5596 59.8345C13.7652 56.1815 13.7856 52.7517 14.2541 49.667C14.8244 50.2149 15.3744 50.8644 15.8836 51.5747C15.8022 53.6244 15.9651 55.8162 16.454 58.0689C17.8798 64.766 19.4483 67.4449 19.6316 67.871Z" fill="#3C5E10"/>
<path d="M65.3002 59.814C64.1595 65.0703 62.591 68.5812 61.7355 70.2656C60.4318 69.2915 59.556 68.3985 59.6782 67.8506C59.8615 67.4244 61.43 64.7659 62.8762 58.0484C63.3651 55.7755 63.528 53.604 63.4465 51.5542C64.0984 50.641 64.8113 49.8495 65.5446 49.2001C66.0538 52.4269 66.115 55.9987 65.3002 59.814Z" fill="#3C5E10"/>
<path d="M59.556 74.4057C59.5968 75.6234 61.7763 78.0181 60.6356 78.3631C59.4746 78.5255 53.6692 74.9739 53.6692 74.9739C53.6692 74.9739 53.9952 78.9313 53.3026 78.911C51.9582 78.8705 50.9194 76.009 49.1676 73.0054C46.3566 74.2636 43.24 74.9739 39.9402 74.9739C36.6199 74.9739 33.483 74.2636 30.6517 72.9851C28.8999 76.0089 27.861 78.8908 26.5166 78.911C25.8241 78.9313 26.15 74.9739 26.15 74.9739C26.15 74.9739 20.3243 78.5255 19.1836 78.3631C18.0429 78.0181 20.2428 75.6234 20.2632 74.4057C14.7227 77.044 11.9728 77.4702 11.9728 77.4702C14.2338 74.7507 18.1448 72.6807 20.1614 70.4889C19.978 70.0627 17.7577 66.4097 16.3115 59.7126C14.2949 50.3975 17.9411 42.5435 20.1614 38.8297C20.4262 38.3832 20.691 37.9773 20.8947 37.6526H21.0169C21.7298 38.1397 22.4631 38.6267 23.2372 39.0529C25.3352 40.23 27.6777 41.1838 30.2239 41.8941C33.2386 42.7262 36.4977 43.1727 39.9198 43.1727C43.3215 43.1727 46.5603 42.7262 49.5546 41.9144C49.5546 41.9144 49.5546 41.9144 49.5546 41.8941C52.1008 41.2041 54.4433 40.2503 56.5413 39.0529C57.3154 38.6267 58.0691 38.1397 58.7616 37.6526H58.9042C59.1283 37.9773 59.3727 38.3832 59.6579 38.85C61.8782 42.5638 65.5039 50.4177 63.5077 59.7126C62.0615 66.4097 59.8412 70.0627 59.6579 70.4889C61.6745 72.6807 65.5854 74.7507 67.8464 77.4702C67.8464 77.4702 65.0966 77.044 59.556 74.4057Z" fill="#678937"/>
<path d="M39.9605 71.2804C46.2041 71.2804 51.2656 65.5925 51.2656 58.5761C51.2656 51.5597 46.2041 45.8718 39.9605 45.8718C33.7168 45.8718 28.6554 51.5597 28.6554 58.5761C28.6554 65.5925 33.7168 71.2804 39.9605 71.2804Z" fill="#89B649"/>
<path d="M40.103 37.3687C51.5507 37.3687 61.491 32.4777 66.6445 28.5C66.6445 28.4189 66.726 27.7288 66.726 27.0997C66.726 16.6481 54.7283 8.18536 39.9401 8.18536C25.1518 8.18536 13.1541 16.6481 13.1541 27.0997C13.1541 27.81 13.3171 28.5812 13.3171 28.703C17.6965 31.9298 27.0054 37.3687 40.103 37.3687Z" fill="#89B649"/>
<path d="M59.6781 38.8499C54.6468 42.5232 47.599 44.8367 39.9604 44.8367C32.3014 44.8367 25.2128 42.5029 20.1816 38.8296C20.4464 38.3831 20.7112 37.9772 20.9149 37.6525H21.0371C21.75 38.1396 22.4833 38.6267 23.2574 39.0528C25.3554 40.2299 27.6979 41.1837 30.2441 41.894C33.2588 42.7261 36.5179 43.1726 39.94 43.1726C43.3417 43.1726 46.5805 42.7261 49.5748 41.9143C49.5748 41.9143 49.5748 41.9143 49.5748 41.894C52.121 41.204 54.4635 40.2502 56.5616 39.0528C57.3356 38.6267 58.0893 38.1396 58.7818 37.6525H58.9244C59.1485 37.9975 59.3929 38.3831 59.6781 38.8499Z" fill="#5A7830"/>
<path d="M40.0623 37.2468C23.1759 37.1453 13.1745 28.1549 13.3374 28.7028C16.0059 37.1656 27.1684 43.6395 39.9604 43.6395C52.834 43.6395 64.078 37.0438 66.6649 28.4999C66.8075 27.9925 56.2357 37.3482 40.0623 37.2468Z" fill="#789F40"/>
<path d="M38.4327 10.2147C39.329 16.6683 34.7866 22.6349 28.3091 23.5278C21.8112 24.4208 15.8429 19.8951 14.9467 13.4212C14.0504 6.96759 18.5928 1.00105 25.0907 0.108096C31.5682 -0.764562 37.5365 3.74079 38.4327 10.2147Z" fill="#89B649"/>
<path d="M33.9922 10.8234C34.5422 14.8417 31.7312 18.5556 27.698 19.1035C23.6649 19.6515 19.9373 16.8509 19.3873 12.8326C18.8373 8.81429 21.6483 5.10043 25.6815 4.55248C29.7146 3.98424 33.4423 6.80515 33.9922 10.8234Z" fill="white"/>
<path d="M31.2626 11.1685C31.6089 13.7459 29.796 16.1203 27.2091 16.4856C24.6221 16.8306 22.2389 15.0244 21.8723 12.447C21.526 9.86963 23.3389 7.49518 25.9258 7.12989C28.5127 6.78488 30.896 8.59108 31.2626 11.1685Z" fill="#383838"/>
<path d="M64.9946 13.198C64.2206 19.6719 58.3338 24.299 51.8155 23.5278C45.3176 22.7566 40.6734 16.8916 41.4474 10.4177C42.2215 3.94374 48.1083 -0.683372 54.6061 0.0878145C61.1244 0.859001 65.7687 6.72408 64.9946 13.198Z" fill="#89B649"/>
<path d="M60.5337 12.6905C60.0652 16.7291 56.3783 19.5906 52.3451 19.1238C48.2916 18.6368 45.4195 14.9838 45.888 10.9655C46.3769 6.94721 50.0434 4.06541 54.0766 4.53218C58.1301 4.99895 61.0226 8.65194 60.5337 12.6905Z" fill="white"/>
<path d="M57.9671 12.3657C57.6615 14.9634 55.2987 16.8102 52.7117 16.5058C50.1044 16.2014 48.2508 13.8472 48.5767 11.2698C48.8822 8.67215 51.2451 6.82536 53.832 7.15007C56.419 7.43419 58.2726 9.78834 57.9671 12.3657Z" fill="#383838"/>
<path d="M89.8478 30.0937C88.9779 29.075 87.9295 28.2262 86.782 27.538C84.2652 26.0038 81.3099 25.3687 78.3627 25.7003C78.2744 25.4767 78.141 25.2458 78.0235 25.0295C77.9083 24.8096 77.7436 24.3424 77.5582 24.0334L77.0528 23.31C76.8091 22.8919 76.5164 22.5185 76.1921 22.1484C76.1764 22.0921 76.1448 22.0212 76.0928 21.943L75.9855 21.8787C75.1302 20.8687 74.1411 20.0035 73.0162 19.2819L72.8161 19.1619C72.307 18.8565 71.7789 18.5868 71.2231 18.3548L71.0049 18.224C70.4168 17.9677 69.7966 17.7688 69.1601 17.6343C61.0424 15.7846 54.2023 21.6959 52.3925 29.3631C51.5814 33.3493 51.6647 37.4567 52.6287 41.3702C54.1205 46.9132 56.1834 52.2548 58.7956 57.3324L59.0927 57.9087L59.7121 57.9068C65.4212 57.7952 71.0869 57.0888 76.6399 55.7957C80.5657 54.8148 84.2412 52.9371 87.3617 50.3359C93.2468 45.1129 95.2497 36.3005 89.8478 30.0937Z" fill="url(#paint0_linear_1252_129)"/>
<path d="M84.7484 11.5076C84.5371 11.3002 84.2898 11.1336 84.0238 11.0044C83.44 10.7154 82.777 10.6329 82.1346 10.7631C82.1108 10.7156 82.077 10.6673 82.0469 10.622C82.0173 10.5758 81.9719 10.4761 81.9251 10.4117L81.7998 10.2622C81.7381 10.1749 81.6664 10.0984 81.5878 10.0232C81.5833 10.0111 81.5749 9.9961 81.562 9.9799L81.5371 9.96781C81.3292 9.76206 81.0946 9.59075 80.833 9.45369L80.7866 9.43116C80.6686 9.3738 80.5471 9.32466 80.4202 9.28437L80.3697 9.25979C80.2352 9.21477 80.0948 9.18301 79.9521 9.16574C78.129 8.91593 76.7378 10.35 76.4881 12.073C76.3869 12.9664 76.4849 13.869 76.7731 14.7119C77.2091 15.9033 77.7669 17.0393 78.4405 18.1065L78.5171 18.2276L78.6534 18.2152C79.9081 18.0799 81.1418 17.8145 82.3392 17.4221C83.1845 17.1301 83.9572 16.6454 84.5938 16.0122C85.7881 14.7482 86.058 12.7693 84.7484 11.5076Z" fill="url(#paint1_linear_1252_129)"/>
<defs>
<linearGradient id="paint0_linear_1252_129" x1="92.4962" y1="40.558" x2="51.5816" y2="32.4956" gradientUnits="userSpaceOnUse">
<stop stop-color="#FBB4B0"/>
<stop offset="1" stop-color="#F64439"/>
</linearGradient>
<linearGradient id="paint1_linear_1252_129" x1="85.5344" y1="13.7601" x2="76.3704" y2="12.779" gradientUnits="userSpaceOnUse">
<stop stop-color="#FBB4B0"/>
<stop offset="1" stop-color="#F64439"/>
</linearGradient>
</defs>
</svg>
