<?xml version="1.0" encoding="UTF-8"?>
<svg id="_Слой_2" data-name="Слой 2" xmlns="http://www.w3.org/2000/svg" viewBox="0 0 16 16">
  <defs>
    <style>
      .cls-1 {
        fill: #fff;
      }

      .cls-2 {
        fill: #3f3eed;
      }

      .cls-3 {
        fill: rgba(255, 255, 255, .4);
        fill-rule: evenodd;
      }
    </style>
  </defs>
  <g id="_Слой_1-2" data-name="Слой 1">
    <g>
      <rect class="cls-2" x="0" width="16" height="16" rx="1.23" ry="1.23"/>
      <path class="cls-3" d="m8.21.75h0c-1.36,0-2.68.39-3.83,1.12-1.15.72-2.06,1.76-2.65,2.98-.59,1.22-.81,2.58-.66,3.93.15,1.28.64,2.51,1.42,3.53l-1.2,1.17h0c-.14.14-.23.32-.27.51-.04.19-.02.39.06.57.07.18.2.33.36.44.16.11.35.17.54.17h6.23c.95,0,1.88-.19,2.76-.55.87-.36,1.67-.89,2.34-1.56.67-.67,1.2-1.46,1.56-2.34.36-.87.55-1.81.55-2.76,0-.26-.1-.51-.29-.69-.18-.18-.43-.29-.69-.29s-.51.1-.69.29c-.18.18-.29.43-.29.69,0,1.39-.55,2.72-1.54,3.71-.98.98-2.32,1.54-3.71,1.54h-3.85l.14-.14h0c.09-.09.17-.2.22-.32.05-.12.08-.25.08-.38s-.03-.26-.08-.38c-.05-.12-.12-.23-.21-.32-.73-.73-1.23-1.67-1.43-2.68-.2-1.02-.1-2.07.3-3.03.4-.96,1.07-1.78,1.93-2.35.86-.58,1.88-.88,2.91-.88.26,0,.51-.1.69-.29.18-.18.29-.43.29-.69s-.1-.51-.29-.69c-.18-.18-.43-.29-.69-.29Z"/>
      <path class="cls-2" d="m8.2.75v-.03s0,.03,0,.03Zm0,0v-.03h0v.03Zm-3.83,1.12l.02.03-.02-.03Zm-2.65,2.98h-.03s.03,0,.03,0Zm-.66,3.93h-.03s.03,0,.03,0Zm1.42,3.53l.02.02.02-.02-.02-.02-.02.02Zm-1.2,1.17l-.02-.02h0s.02.02.02.02Zm0,0l-.02-.02h0l.02.02Zm-.27.5h.03s-.03,0-.03,0Zm.06.57h.03s0-.01,0-.01h-.03Zm.36.45l-.02.03h0l.02-.03Zm.54.17v.03s0,0,0,0v-.03Zm0,0v.03s0,0,0,0v-.03Zm8.98-.55v.03s0-.03,0-.03Zm2.34-1.56l-.02-.02.02.02Zm1.82-5.79l.02-.02h0l-.02.02Zm-1.39,0l-.02-.02.02.02Zm-1.82,4.4l.02.02-.02-.02Zm-7.56,1.54l-.02-.02-.05.05h.08v-.03Zm.14-.14l.02.02h0s-.02-.02-.02-.02Zm0,0l.02.02h0s-.02-.02-.02-.02Zm.22-.32h-.03s.03,0,.03,0Zm0-.76h-.03s.03,0,.03,0Zm-.21-.32l-.02.02h0s.02-.02.02-.02Zm-1.43-2.68h-.03s.03,0,.03,0Zm.3-3.03h.03s-.03,0-.03,0Zm1.93-2.35l.02.03-.02-.03Zm2.91-.88v.03h0v-.03Zm.69-.29l-.02-.02h0l.02.02Zm0-1.39l-.02.02h0l.02-.02Zm-.7-.26h0v-.06h0v.06Zm-3.81,1.11c1.14-.72,2.46-1.11,3.81-1.11v-.06c-1.36,0-2.69.39-3.84,1.12l.03.05Zm-2.64,2.97c.58-1.22,1.5-2.25,2.64-2.97l-.03-.05c-1.15.73-2.07,1.76-2.66,2.99l.06.03Zm-.66,3.91c-.15-1.34.07-2.7.66-3.91l-.06-.03c-.59,1.23-.82,2.6-.66,3.95h.06Zm1.41,3.51c-.78-1.02-1.26-2.24-1.41-3.52h-.06c.15,1.3.64,2.52,1.42,3.56l.05-.04Zm-1.2,1.21l1.2-1.17-.04-.04-1.2,1.17.04.04Zm0,0h0s-.04-.05-.04-.05h0s.04.05.04.05Zm-.26.49c.04-.18.13-.35.26-.49l-.04-.04c-.14.14-.24.32-.27.52h.06Zm.06.56c-.07-.17-.09-.36-.06-.55h-.06c-.04.18-.02.39.06.57l.06-.02Zm.35.43c-.16-.1-.28-.25-.35-.43l-.06.02c.08.18.21.34.37.45l.03-.05Zm.53.16c-.19,0-.37-.06-.53-.16l-.03.05c.17.11.36.17.56.17v-.06Zm0,0h0v.06s0,0,0,0v-.06Zm6.22,0H1.98v.06h6.22v-.06Zm2.75-.55c-.87.36-1.8.55-2.75.55v.06c.95,0,1.89-.19,2.77-.55l-.02-.06Zm2.33-1.56c-.67.67-1.46,1.19-2.33,1.56l.02.06c.88-.36,1.68-.9,2.35-1.57l-.04-.04Zm1.56-2.33c-.36.87-.89,1.66-1.56,2.33l.04.04c.67-.67,1.21-1.47,1.57-2.35l-.06-.02Zm.55-2.75c0,.94-.19,1.88-.55,2.75l.06.02c.36-.88.55-1.82.55-2.77h-.06Zm-.28-.67c.18.18.28.42.28.67h.06c0-.27-.11-.53-.3-.72l-.04.04Zm-.67-.28c.25,0,.49.1.67.28l.04-.04c-.19-.19-.45-.3-.72-.3v.06Zm-.67.28c.18-.18.42-.28.67-.28v-.06c-.27,0-.53.11-.72.3l.04.04Zm-.28.67c0-.25.1-.49.28-.67l-.04-.04c-.19.19-.3.45-.3.72h.06Zm-1.54,3.73c.99-.99,1.54-2.33,1.54-3.73h-.06c0,1.38-.55,2.71-1.53,3.68l.04.04Zm-3.73,1.54c1.4,0,2.74-.56,3.73-1.54l-.04-.04c-.98.98-2.3,1.53-3.68,1.53v.06Zm-3.85,0h3.85v-.06h-3.85v.06Zm.12-.19l-.14.14.04.04.14-.14-.04-.04Zm0,0h0s.04.04.04.04h0s-.04-.04-.04-.04Zm.21-.31c-.05.12-.12.22-.21.31l.04.04c.09-.09.17-.21.22-.33l-.06-.02Zm.07-.37c0,.13-.02.25-.07.37l.06.02c.05-.12.08-.26.08-.39h-.06Zm-.07-.37c.05.12.07.24.07.37h.06c0-.13-.03-.27-.08-.39l-.06.02Zm-.21-.31c.09.09.16.19.21.31l.06-.02c-.05-.12-.13-.24-.22-.33l-.04.04Zm-1.44-2.7c.2,1.02.71,1.96,1.44,2.7l.04-.04c-.73-.73-1.22-1.66-1.43-2.67h-.06Zm.3-3.03c-.4.96-.5,2.02-.3,3.05h.06c-.2-1.02-.1-2.07.3-3.02l-.06-.02Zm1.94-2.37c-.87.58-1.54,1.4-1.94,2.37l.06.02c.39-.95,1.06-1.77,1.92-2.34l-.03-.05Zm2.93-.89c-1.04,0-2.06.31-2.93.89l.03.05c.86-.57,1.86-.88,2.9-.88v-.06Zm.67-.28c-.18.18-.42.28-.67.28v.06c.27,0,.53-.11.72-.3l-.04-.04Zm.28-.67c0,.25-.1.49-.28.67l.04.04c.19-.19.3-.45.3-.72h-.06Zm-.28-.67c.18.18.28.42.28.67h.06c0-.27-.11-.53-.3-.72l-.04.04Zm-.67-.28c.25,0,.49.1.67.28l.04-.04c-.19-.19-.45-.3-.72-.3v.06Z"/>
      <path class="cls-1" d="m5.4,9.54c-.37,0-.7-.08-1-.24-.29-.16-.53-.38-.7-.66-.17-.28-.25-.61-.25-.98s.08-.69.25-.98c.17-.28.41-.51.7-.66.3-.16.63-.24,1-.24s.69.08.99.24c.3.16.53.38.7.66.17.28.25.61.25.98s-.08.69-.25.98c-.17.28-.4.5-.7.66-.29.16-.62.24-.99.24Zm0-.85c.18,0,.35-.04.5-.12.15-.08.27-.2.36-.36.09-.15.13-.33.13-.54s-.04-.38-.13-.54c-.09-.15-.21-.27-.36-.36-.15-.09-.32-.13-.51-.13s-.36.04-.51.13c-.15.08-.27.2-.36.36-.09.15-.13.33-.13.54s.04.39.13.54c.09.15.21.27.36.36.16.08.33.12.51.12Z"/>
      <path class="cls-1" d="m7.7,5.86h2.57v.77h-1.66v.67h1.21v.72h-1.21v1.44h-.92v-3.6Z"/>
      <path class="cls-1" d="m10.53,5.86h2.57v.77h-1.66v.67h1.21v.72h-1.21v1.44h-.92v-3.6Z"/>
    </g>
  </g>
</svg>