<svg width="9" height="10" viewBox="0 0 9 10" fill="none" xmlns="http://www.w3.org/2000/svg">
<path d="M9 5.38095C9 7.74795 6.98535 9.66667 4.5 9.66667C2.01474 9.66667 0 7.74795 0 5.38095C0 3.01404 2.01474 1.09524 4.5 1.09524C6.98535 1.09524 9 3.01404 9 5.38095Z" fill="#27AE60"/>
<path d="M9 4.95238C9 7.31938 6.98535 9.2381 4.5 9.2381C2.01474 9.2381 0 7.31938 0 4.95238C0 2.58547 2.01474 0.666668 4.5 0.666668C6.98535 0.666668 9 2.58547 9 4.95238Z" fill="#2ECC71"/>
<path d="M6.3 3.66667L3.6 6.23809L2.475 5.16667L1.51875 6.06666L2.64375 7.13808L3.54375 7.99523L3.6 8.03807L7.25625 4.56666L6.3 3.66667Z" fill="#27AE60"/>
<path d="M6.3 3.2381L3.6 5.80952L2.475 4.7381L1.51875 5.63809L2.64375 6.70951L3.54375 7.56666L3.6 7.6095L7.25625 4.13809L6.3 3.2381Z" fill="#ECF0F1"/>
</svg>
