<svg width="16" height="17" viewBox="0 0 16 17" fill="none" xmlns="http://www.w3.org/2000/svg">
<path d="M12.6667 2.42859H3.33333C2.59333 2.42859 2 3.02192 2 3.76192V6.42859H3.33333V3.76192H12.6667V13.0953H3.33333V10.4286H2V13.0953C2 13.4489 2.14048 13.788 2.39052 14.0381C2.64057 14.2881 2.97971 14.4286 3.33333 14.4286H12.6667C13.0203 14.4286 13.3594 14.2881 13.6095 14.0381C13.8595 13.788 14 13.4489 14 13.0953V3.76192C14 3.02192 13.4 2.42859 12.6667 2.42859ZM6.72 10.8153L7.66667 11.7619L11 8.42859L7.66667 5.09526L6.72 6.03526L8.44667 7.76192H2V9.09526H8.44667L6.72 10.8153Z" fill="white"/>
</svg>
