<svg width="16" height="14" viewBox="0 0 16 14" fill="none" xmlns="http://www.w3.org/2000/svg">
<path d="M8.04867 11.202C11.4677 11.202 14.4365 9.73582 15.9757 8.54342C15.9757 8.51909 16 8.31224 16 8.12365C16 4.99057 12.4167 2.45369 8 2.45369C3.58327 2.45369 0 4.99057 0 8.12365C0 8.33658 0.0486703 8.56776 0.0486703 8.60426C1.35665 9.57156 4.13688 11.202 8.04867 11.202Z" fill="#89B649"/>
<path d="M8.0365 11.1655C2.99316 11.1351 0.00608521 8.44 0.0547544 8.60426C0.851713 11.1411 4.18555 13.0818 8.00608 13.0818C11.851 13.0818 15.2091 11.1046 15.9817 8.54342C16.0243 8.39133 12.8669 11.1959 8.0365 11.1655Z" fill="#789F40"/>
<path d="M7.5498 3.06206C7.81748 4.99666 6.46083 6.78526 4.52623 7.05294C2.58554 7.32062 0.803034 5.96396 0.535354 4.02328C0.267673 2.08868 1.62433 0.300084 3.56501 0.0324039C5.49961 -0.229193 7.28212 1.12138 7.5498 3.06206Z" fill="#89B649"/>
<path d="M6.22356 3.24457C6.38782 4.44913 5.54827 5.56244 4.34371 5.7267C3.13915 5.89095 2.02584 5.05141 1.86158 3.84685C1.69732 2.64229 2.53686 1.52898 3.74143 1.36472C4.94599 1.19438 6.0593 2.04 6.22356 3.24457Z" fill="white"/>
<path d="M5.40835 3.34799C5.51177 4.12061 4.97033 4.8324 4.1977 4.9419C3.42508 5.04533 2.71329 4.50388 2.60379 3.73126C2.50037 2.95863 3.04181 2.24685 3.81443 2.13734C4.58706 2.03392 5.29884 2.57536 5.40835 3.34799Z" fill="#383838"/>
<path d="M15.4829 3.95635C15.2517 5.89704 13.4935 7.28411 11.5468 7.05293C9.60608 6.82175 8.21901 5.06358 8.45019 3.12289C8.68136 1.18221 10.4395 -0.204863 12.3802 0.0263159C14.327 0.257495 15.7141 2.01567 15.4829 3.95635Z" fill="#89B649"/>
<path d="M14.1506 3.80425C14.0106 5.01489 12.9095 5.87269 11.7049 5.73276C10.4943 5.58675 9.63651 4.4917 9.77643 3.28714C9.92244 2.08257 11.0175 1.21869 12.2221 1.35862C13.4327 1.49854 14.2966 2.5936 14.1506 3.80425Z" fill="white"/>
<path d="M13.384 3.70692C13.2928 4.48563 12.5871 5.03924 11.8145 4.94799C11.0357 4.85673 10.4821 4.15103 10.5795 3.37841C10.6707 2.5997 11.3764 2.04609 12.1491 2.14343C12.9217 2.2286 13.4753 2.9343 13.384 3.70692Z" fill="#383838"/>
</svg>
