<svg width="14" height="14" viewBox="0 0 14 14" fill="none" xmlns="http://www.w3.org/2000/svg"><path d="M6.09589 0.914765C6.46271 0.17152 7.52255 0.171518 7.88937 0.914764L9.17441 3.51854C9.32007 3.81369 9.60163 4.01826 9.92735 4.06558L12.8008 4.48312C13.621 4.6023 13.9485 5.61028 13.355 6.18881L11.2758 8.21557C11.0401 8.44531 10.9325 8.77631 10.9882 9.1007L11.479 11.9625C11.6191 12.7794 10.7617 13.4024 10.0281 13.0167L7.45797 11.6655C7.16665 11.5124 6.81861 11.5124 6.52729 11.6655L3.95721 13.0167C3.22358 13.4024 2.36615 12.7794 2.50626 11.9625L2.9971 9.1007C3.05274 8.77631 2.94519 8.44531 2.7095 8.21557L0.630262 6.18881C0.0367454 5.61028 0.364255 4.6023 1.18448 4.48312L4.05791 4.06558C4.38363 4.01826 4.66519 3.81369 4.81085 3.51854L6.09589 0.914765Z" fill="#6C7897"/></svg>