<svg width="22" height="21" viewBox="0 0 22 21" fill="none" xmlns="http://www.w3.org/2000/svg">
<path d="M10.1033 0.959809C10.4701 0.216564 11.5299 0.216562 11.8967 0.959808L14.294 5.81728C14.4397 6.11242 14.7213 6.31699 15.047 6.36432L20.4075 7.14325C21.2277 7.26244 21.5552 8.27041 20.9617 8.84894L17.0828 12.63C16.8471 12.8597 16.7396 13.1907 16.7952 13.5151L17.7109 18.854C17.851 19.6709 16.9936 20.2938 16.26 19.9081L11.4653 17.3875C11.174 17.2343 10.826 17.2343 10.5347 17.3875L5.74005 19.9081C5.00642 20.2938 4.14899 19.6709 4.2891 18.854L5.20479 13.5151C5.26043 13.1907 5.15288 12.8597 4.91719 12.63L1.03827 8.84895C0.444756 8.27041 0.772265 7.26244 1.59249 7.14325L6.95302 6.36432C7.27873 6.31699 7.5603 6.11242 7.70596 5.81728L10.1033 0.959809Z" fill="#FFD134"/>
</svg>