<svg width="24" height="25" viewBox="0 0 24 25" fill="none" xmlns="http://www.w3.org/2000/svg">
<path d="M12 24.7939C18.6274 24.7939 24 19.4213 24 12.7939C24 6.16645 18.6274 0.793869 12 0.793869C5.37258 0.793869 0 6.16645 0 12.7939C0 19.4213 5.37258 24.7939 12 24.7939Z" fill="url(#paint0_linear_336_495)"/>
<path d="M11.1033 5.01546C11.4701 4.27221 12.5299 4.27221 12.8967 5.01546L14.6328 8.53307C14.7784 8.82821 15.06 9.03278 15.3857 9.08011L19.2676 9.64419C20.0879 9.76337 20.4154 10.7713 19.8219 11.3499L17.0129 14.088C16.7772 14.3177 16.6696 14.6487 16.7253 14.9731L17.3884 18.8393C17.5285 19.6562 16.6711 20.2792 15.9374 19.8935L12.4653 18.0681C12.174 17.915 11.826 17.915 11.5347 18.0681L8.06257 19.8935C7.32894 20.2792 6.47151 19.6562 6.61162 18.8393L7.27473 14.9731C7.33037 14.6487 7.22282 14.3177 6.98713 14.088L4.17815 11.3499C3.58463 10.7713 3.91214 9.76337 4.73236 9.64419L8.61428 9.08011C8.93999 9.03278 9.22156 8.82821 9.36722 8.53307L11.1033 5.01546Z" fill="white"/>
<defs>
<linearGradient id="paint0_linear_336_495" x1="11.9973" y1="0.665509" x2="11.9973" y2="24.8857" gradientUnits="userSpaceOnUse">
<stop stop-color="#FFF650"/>
<stop offset="1" stop-color="#FFAB17"/>
</linearGradient>
</defs>
</svg>
