<svg width="16" height="16" viewBox="0 0 16 16" fill="none" xmlns="http://www.w3.org/2000/svg">
<path d="M6.28822 0.11649C6.37723 0.146772 6.46419 0.182789 6.54852 0.224311L7.56328 0.723903C7.83865 0.85949 8.1614 0.85949 8.43677 0.723903L9.45154 0.224311C10.5293 -0.306376 11.8334 0.137216 12.364 1.21509L12.4222 1.34351L12.4719 1.47541L12.8361 2.54618C12.935 2.83679 13.1632 3.06501 13.4538 3.16387L14.5246 3.52812C15.662 3.91504 16.2704 5.15078 15.8835 6.28821C15.8532 6.37722 15.8172 6.46418 15.7757 6.5485L15.2761 7.56327C15.1405 7.83864 15.1405 8.16139 15.2761 8.43675L15.7757 9.45152C16.3064 10.5293 15.8628 11.8334 14.7849 12.364C14.7006 12.4056 14.6137 12.4416 14.5246 12.4719L13.4538 12.8361C13.1632 12.935 12.935 13.1632 12.8361 13.4538L12.4719 14.5246C12.085 15.662 10.8493 16.2704 9.71179 15.8835C9.6228 15.8532 9.53586 15.8172 9.45154 15.7757L8.43677 15.2761C8.1614 15.1405 7.83865 15.1405 7.56328 15.2761L6.54852 15.7757C5.47065 16.3064 4.16664 15.8628 3.63595 14.7849C3.59442 14.7006 3.55841 14.6136 3.52813 14.5246L3.16388 13.4538C3.06502 13.1632 2.8368 12.935 2.54619 12.8361L1.47542 12.4719C0.337985 12.0849 -0.270417 10.8492 0.116505 9.71178C0.146786 9.62278 0.182803 9.53585 0.224326 9.45152L0.723917 8.43675C0.859504 8.16139 0.859504 7.83864 0.723917 7.56327L0.224326 6.5485C-0.306362 5.47063 0.137231 4.16663 1.21511 3.63594C1.29946 3.59441 1.38641 3.55839 1.47542 3.52812L2.54619 3.16387C2.8368 3.06501 3.06502 2.83679 3.16388 2.54618L3.52813 1.47541C3.91505 0.33797 5.15079 -0.270431 6.28822 0.11649Z" fill="url(#paint0_linear_334_185)"/>
<path d="M13 4.25C13 4.08424 12.9361 3.92527 12.8225 3.80806C12.7088 3.69085 12.5547 3.625 12.3939 3.625H10.5758C10.2546 3.62599 9.94683 3.758 9.71972 3.99221C9.49261 4.22642 9.3646 4.54378 9.36364 4.875V6.75C9.36364 6.91576 9.42749 7.07473 9.54115 7.19194C9.65481 7.30915 9.80896 7.375 9.9697 7.375C10.1304 7.375 10.2846 7.30915 10.3982 7.19194C10.5119 7.07473 10.5758 6.91576 10.5758 6.75V5.53125C11.1652 6.2094 11.4892 7.08928 11.4848 8C11.4848 8.74168 11.2716 9.4667 10.872 10.0834C10.4724 10.7001 9.90452 11.1807 9.24006 11.4645C8.5756 11.7484 7.84445 11.8226 7.13907 11.6779C6.43368 11.5332 5.78574 11.1761 5.27719 10.6516C4.76863 10.1272 4.4223 9.45902 4.28199 8.73159C4.14168 8.00416 4.2137 7.25016 4.48892 6.56494C4.76415 5.87971 5.23023 5.29404 5.82823 4.88199C6.42623 4.46993 7.12928 4.25 7.84849 4.25C8.00922 4.25 8.16338 4.18415 8.27704 4.06694C8.39069 3.94973 8.45455 3.79076 8.45455 3.625C8.45455 3.45924 8.39069 3.30027 8.27704 3.18306C8.16338 3.06585 8.00922 3 7.84849 3C6.88955 3 5.95214 3.29324 5.15481 3.84265C4.35748 4.39206 3.73604 5.17295 3.36907 6.08658C3.0021 7.00021 2.90608 8.00555 3.09316 8.97545C3.28024 9.94535 3.74202 10.8363 4.42009 11.5355C5.09816 12.2348 5.96208 12.711 6.90259 12.9039C7.84311 13.0969 8.81798 12.9978 9.70392 12.6194C10.5899 12.241 11.3471 11.6001 11.8799 10.7778C12.4126 9.9556 12.697 8.9889 12.697 8C12.7031 6.86344 12.3284 5.75956 11.6364 4.875H12.3939C12.5547 4.875 12.7088 4.80915 12.8225 4.69194C12.9361 4.57473 13 4.41576 13 4.25Z" fill="white"/>
<defs>
<linearGradient id="paint0_linear_334_185" x1="4.95264" y1="-2.42969" x2="4.95264" y2="13.5703" gradientUnits="userSpaceOnUse">
<stop stop-color="#1ADE64"/>
<stop offset="1" stop-color="#16D15D"/>
</linearGradient>
</defs>
</svg>
