<svg width="19" height="19" viewBox="0 0 19 19" fill="none" xmlns="http://www.w3.org/2000/svg">
<path fill-rule="evenodd" clip-rule="evenodd" d="M7.20072 1.52939C7.20072 1.52939 6.0848 1.53221 4.3974 1.53503C2.2598 1.53926 0.529419 3.27369 0.529419 5.41125V14.5944C0.529419 15.6226 0.937354 16.6086 1.66445 17.3352C2.39084 18.0625 3.37651 18.4706 4.40445 18.4706H13.5657C15.7061 18.4706 17.4407 16.7354 17.4407 14.5944C17.4407 12.8994 17.4407 12.4795 17.4407 12.4795C17.4407 11.8959 16.9673 11.4223 16.3839 11.4223C15.8013 11.4223 15.3271 11.8959 15.3271 12.4795V14.5944C15.3271 15.5676 14.5387 16.3563 13.5657 16.3563H4.40445C3.93733 16.3563 3.48924 16.1709 3.1588 15.8404C2.82837 15.5098 2.64307 15.0616 2.64307 14.5944V5.41125C2.64307 4.43937 3.43005 3.65144 4.40163 3.64933C6.08832 3.64651 7.20495 3.64369 7.20495 3.64369C7.78832 3.64228 8.26036 3.16797 8.25966 2.58443C8.25896 2.00088 7.78409 1.52798 7.20072 1.52939Z" fill="#3DD0FF"/>
<path fill-rule="evenodd" clip-rule="evenodd" d="M12.5083 2.473L16.5332 6.51572L17.343 5.70323C18.4543 4.58651 18.4543 2.77723 17.343 1.66124L17.3423 1.66051C16.2303 0.544519 14.4286 0.544519 13.3173 1.66051L12.5083 2.473Z" fill="#FF0000"/>
<path fill-rule="evenodd" clip-rule="evenodd" d="M12.0058 3.13374L6.46197 8.65364C6.3622 8.75383 6.29302 8.88108 6.26462 9.02003L5.4774 12.7878C5.42715 13.0284 5.5007 13.2785 5.67257 13.4525C5.84516 13.6273 6.09276 13.7034 6.33307 13.6551L10.1155 12.896C10.2561 12.8675 10.3857 12.798 10.4876 12.6956L16.0315 7.17646L12.0058 3.13374Z" fill="#C97D00"/>
<path fill-rule="evenodd" clip-rule="evenodd" d="M6.66745 8.48474L6.39115 8.72815C6.28473 8.83609 6.21094 8.97319 6.18065 9.12288L5.47843 12.823C5.42484 13.0823 5.50329 13.3517 5.68661 13.5392C5.87071 13.7275 6.13482 13.8095 6.39115 13.7575L10.0734 12.9291C10.2234 12.8984 10.3616 12.8235 10.4704 12.7132L10.7467 12.4706L6.66745 8.48474Z" fill="#FFAD27"/>
<path fill-rule="evenodd" clip-rule="evenodd" d="M6.66745 8.48474L6.39115 8.72815C6.28473 8.83609 6.21094 8.97319 6.18065 9.12288L5.47843 12.823C5.42484 13.0823 5.50329 13.3517 5.68661 13.5392C5.87071 13.7275 6.13482 13.8095 6.39115 13.7575L10.0734 12.9291C10.2234 12.8984 10.3616 12.8235 10.4704 12.7132L10.7467 12.4706L6.66745 8.48474Z" fill="#FFAD27"/>
<path d="M5.68661 13.5392C5.50329 13.3517 5.42484 13.0822 5.47843 12.823L5.62357 12.0766L7.2434 13.5649L6.39115 13.7575C6.13482 13.8095 5.87071 13.7275 5.68661 13.5392Z" fill="#543838"/>
</svg>
