<svg width="110" height="117" viewBox="0 0 110 117" fill="none" xmlns="http://www.w3.org/2000/svg">
<path d="M33.4367 20.7911C32.8711 21.8014 31.9074 22.5594 30.7578 22.8514C30.4193 22.9377 30.0635 22.9841 29.6971 22.9841C27.3315 22.9841 25.4146 21.0673 25.4146 18.7017C25.4146 16.3361 27.3315 14.4192 29.6971 14.4192C32.0627 14.4192 33.9796 16.3361 33.9796 18.7017C33.9796 19.461 33.7818 20.1739 33.4367 20.7911Z" fill="#2FC1F1"/>
<path d="M55.3774 0C58.6085 0 61.2276 2.61914 61.2276 5.85024C61.2276 8.71629 59.1647 11.1031 56.4407 11.6023C56.0956 11.666 55.7411 11.6992 55.3774 11.6992C55.0137 11.6992 54.6592 11.666 54.3141 11.6023C51.5901 11.1031 49.5272 8.71629 49.5272 5.85024C49.5272 2.61914 52.1463 0 55.3774 0Z" fill="#DD6475"/>
<path d="M77.3181 20.7911C76.973 20.1739 76.7752 19.461 76.7752 18.7017C76.7752 16.3361 78.6921 14.4192 81.0577 14.4192C83.4232 14.4192 85.3415 16.3361 85.3415 18.7017C85.3415 21.0673 83.4232 22.9841 81.0577 22.9841C80.6913 22.9841 80.3355 22.9377 79.997 22.8514C78.8474 22.5594 77.8836 21.8014 77.3181 20.7911Z" fill="#77D379"/>
<path d="M79.997 22.8514V22.8527L73.7233 47.4033H37.0315L30.7578 22.8527V22.8514C31.9074 22.5593 32.8711 21.8013 33.4367 20.7911C35.258 21.5119 37.2439 21.9049 39.3214 21.9049C46.162 21.9049 52.0016 17.6277 54.3141 11.6049V11.6022C54.6592 11.666 55.0137 11.6991 55.3774 11.6991C55.7411 11.6991 56.0956 11.666 56.4407 11.6022V11.6049C58.7532 17.629 64.5928 21.9049 71.4334 21.9049C73.5109 21.9049 75.4968 21.5119 77.3181 20.7911C77.8836 21.8013 78.8474 22.5593 79.997 22.8514Z" fill="#FFC035"/>
<path d="M32.3369 107.528C29.2369 109.982 23.123 113.125 22.6063 112.91C21.7882 112.565 21.8313 111.876 24.9098 109.465C22.1111 110.52 17.4611 112.823 17.0736 111.962C16.7292 111.187 23.5535 107.807 26.4167 105.504C22.2188 103.071 7.38611 95.7518 17.4181 85.9567C21.1639 82.297 25.1466 82.7921 28.3973 85.9782C29.0001 86.5595 29.5813 87.2484 30.1195 88.0018C30.0334 90.1761 30.2056 92.5011 30.7223 94.8907C32.2508 101.995 33.9084 104.837 34.1021 105.289C34.2313 105.805 33.4994 106.602 32.3369 107.528Z" fill="#446B12"/>
<path d="M93.4544 111.941C93.0669 112.823 88.4169 110.498 85.6182 109.444C88.6967 111.855 88.7398 112.544 87.9217 112.888C87.4266 113.103 81.8078 110.219 78.6002 107.829C77.2224 106.796 76.2967 105.848 76.4259 105.267C76.6196 104.815 78.2772 101.995 79.8057 94.8692C80.3224 92.4581 80.4946 90.1546 80.4085 87.9803C81.0974 87.0116 81.8509 86.172 82.6259 85.4831C85.7689 82.7275 89.5363 82.4692 93.1099 85.9352C103.142 95.7303 88.3307 103.05 84.1113 105.482C86.9745 107.786 93.7988 111.166 93.4544 111.941Z" fill="#446B12"/>
<path d="M34.1021 105.289C34.2313 105.805 33.4993 106.623 32.3368 107.528C31.4111 105.633 29.8611 102.017 28.7417 96.7637C27.9021 92.8887 27.9236 89.2505 28.4188 85.9783C29.0215 86.5595 29.6028 87.2484 30.141 88.0019C30.0549 90.1762 30.2271 92.5012 30.7438 94.8908C32.2507 101.995 33.9084 104.837 34.1021 105.289Z" fill="#3C5E10"/>
<path d="M82.3675 96.7421C81.162 102.318 79.5043 106.042 78.6001 107.829C77.2224 106.796 76.2967 105.848 76.4258 105.267C76.6196 104.815 78.2772 101.995 79.8057 94.8692C80.3224 92.4581 80.4946 90.1546 80.4085 87.9803C81.0974 87.0116 81.8508 86.172 82.6258 85.4831C83.164 88.906 83.2286 92.6949 82.3675 96.7421Z" fill="#3C5E10"/>
<path d="M76.2967 112.221C76.3397 113.512 78.6432 116.053 77.4377 116.419C76.2106 116.591 70.0751 112.823 70.0751 112.823C70.0751 112.823 70.4196 117.021 69.6876 117C68.2668 116.957 67.1689 113.921 65.3175 110.735C62.3466 112.07 59.0529 112.823 55.5654 112.823C52.0563 112.823 48.741 112.07 45.7487 110.714C43.8973 113.921 42.7994 116.978 41.3785 117C40.6466 117.021 40.991 112.823 40.991 112.823C40.991 112.823 34.8341 116.591 33.6285 116.419C32.423 116.053 34.748 113.512 34.7695 112.221C28.9139 115.019 26.0077 115.471 26.0077 115.471C28.3972 112.587 32.5306 110.391 34.6618 108.066C34.4681 107.614 32.1216 103.739 30.5931 96.6345C28.4618 86.7532 32.3153 78.422 34.6618 74.4824C34.9417 74.0088 35.2216 73.5782 35.4368 73.2338H35.566C36.3195 73.7504 37.0945 74.2671 37.9125 74.7192C40.1299 75.9678 42.6056 76.9796 45.2966 77.7331C48.4827 78.6157 51.9272 79.0893 55.5438 79.0893C59.139 79.0893 62.5619 78.6157 65.7265 77.7546C65.7265 77.7546 65.7265 77.7546 65.7265 77.7331C68.4175 77.0011 70.8932 75.9893 73.1106 74.7192C73.9286 74.2671 74.7251 73.7504 75.4571 73.2338H75.6078C75.8446 73.5782 76.1029 74.0088 76.4043 74.5039C78.7509 78.4435 82.5828 86.7748 80.4731 96.6345C78.9446 103.739 76.5981 107.614 76.4043 108.066C78.5356 110.391 82.6689 112.587 85.0585 115.471C85.0585 115.471 82.1523 115.019 76.2967 112.221Z" fill="#678937"/>
<path d="M55.5869 108.905C62.1856 108.905 67.5349 102.872 67.5349 95.429C67.5349 87.9862 62.1856 81.9526 55.5869 81.9526C48.9883 81.9526 43.639 87.9862 43.639 95.429C43.639 102.872 48.9883 108.905 55.5869 108.905Z" fill="#89B649"/>
<path d="M55.7377 72.9324C67.8363 72.9324 78.3419 67.7442 83.7884 63.5248C83.7884 63.4387 83.8746 62.7067 83.8746 62.0393C83.8746 50.9525 71.1947 41.9754 55.5654 41.9754C39.9362 41.9754 27.2563 50.9525 27.2563 62.0393C27.2563 62.7928 27.4286 63.6109 27.4286 63.74C32.0571 67.163 41.8953 72.9324 55.7377 72.9324Z" fill="#89B649"/>
<path d="M76.426 74.504C71.1086 78.4006 63.66 80.8547 55.587 80.8547C47.4926 80.8547 40.0009 78.379 34.6835 74.4825C34.9634 74.0089 35.2432 73.5783 35.4585 73.2339H35.5877C36.3411 73.7506 37.1161 74.2672 37.9342 74.7193C40.1516 75.9679 42.6273 76.9797 45.3183 77.7332C48.5044 78.6158 51.9488 79.0895 55.5655 79.0895C59.1606 79.0895 62.5836 78.6158 65.7482 77.7547C65.7482 77.7547 65.7482 77.7547 65.7482 77.7332C68.4391 77.0013 70.9148 75.9894 73.1322 74.7193C73.9503 74.2672 74.7468 73.7506 75.4787 73.2339H75.6294C75.8662 73.5999 76.1246 74.0089 76.426 74.504Z" fill="#5A7830"/>
<path d="M55.6947 72.8033C37.8481 72.6956 27.2779 63.1588 27.4501 63.7401C30.2703 72.7172 42.0675 79.5846 55.587 79.5846C69.1926 79.5846 81.076 72.588 83.81 63.5248C83.9607 62.9866 72.7878 72.9109 55.6947 72.8033Z" fill="#789F40"/>
<path d="M53.9724 44.1282C54.9197 50.974 50.1189 57.3032 43.2731 58.2505C36.4057 59.1977 30.0981 54.397 29.1508 47.5296C28.2036 40.6837 33.0043 34.3546 39.8717 33.4073C46.7175 32.4816 53.0252 37.2608 53.9724 44.1282Z" fill="#89B649"/>
<path d="M49.2793 44.7741C49.8606 49.0366 46.8897 52.9762 42.6272 53.5574C38.3647 54.1387 34.4251 51.1678 33.8439 46.9053C33.2626 42.6428 36.2335 38.7032 40.496 38.122C44.7585 37.5192 48.6981 40.5116 49.2793 44.7741Z" fill="white"/>
<path d="M46.3946 45.14C46.7606 47.874 44.8446 50.3928 42.1106 50.7803C39.3765 51.1463 36.8578 49.2303 36.4703 46.4963C36.1043 43.7622 38.0203 41.2435 40.7543 40.856C43.4884 40.49 46.0071 42.406 46.3946 45.14Z" fill="#383838"/>
<path d="M82.0448 47.2927C81.2267 54.1601 75.0051 59.0685 68.1162 58.2504C61.2489 57.4324 56.3405 51.2108 57.1586 44.3434C57.9766 37.4761 64.1982 32.5677 71.0655 33.3858C77.9545 34.2038 82.8628 40.4254 82.0448 47.2927Z" fill="#89B649"/>
<path d="M77.3301 46.7545C76.835 51.0385 72.9385 54.074 68.676 53.5788C64.3919 53.0622 61.3565 49.1872 61.8516 44.9246C62.3683 40.6621 66.2433 37.6052 70.5058 38.1003C74.7899 38.5955 77.8468 42.4705 77.3301 46.7545Z" fill="white"/>
<path d="M74.6176 46.4101C74.2947 49.1657 71.7975 51.1247 69.0635 50.8018C66.3079 50.4789 64.3489 47.9817 64.6933 45.2476C65.0162 42.4921 67.5135 40.533 70.2475 40.8775C72.9815 41.1789 74.9406 43.6761 74.6176 46.4101Z" fill="#383838"/>
<path d="M16 41.5L13.0612 40.4524L11.5 36L9.93877 40.4524L7 41.5L9.93877 42.5476L11.5 47L13.0612 42.5476L16 41.5Z" fill="#FFC035"/>
<path d="M102 42.5L99.0612 41.4524L97.5 37L95.9388 41.4524L93 42.5L95.9388 43.5476L97.5 48L99.0612 43.5476L102 42.5Z" fill="#FFC035"/>
<path d="M6 31.5L4.04082 30.8333L3 28L1.95918 30.8333L0 31.5L1.95918 32.1667L3 35L4.04082 32.1667L6 31.5Z" fill="#FFC035"/>
<path d="M110 34.5L108.041 33.8333L107 31L105.959 33.8333L104 34.5L105.959 35.1667L107 38L108.041 35.1667L110 34.5Z" fill="#FFC035"/>
</svg>
