<svg width="16" height="16" viewBox="0 0 16 16" fill="none" xmlns="http://www.w3.org/2000/svg">
<path d="M6.28822 0.11649C6.37723 0.146772 6.46419 0.182789 6.54852 0.224311L7.56328 0.723903C7.83865 0.85949 8.1614 0.85949 8.43677 0.723903L9.45154 0.224311C10.5293 -0.306376 11.8334 0.137216 12.364 1.21509L12.4222 1.34351L12.4719 1.47541L12.8361 2.54618C12.935 2.83679 13.1632 3.06501 13.4538 3.16387L14.5246 3.52812C15.662 3.91504 16.2704 5.15078 15.8835 6.28821C15.8532 6.37722 15.8172 6.46418 15.7757 6.5485L15.2761 7.56327C15.1405 7.83864 15.1405 8.16139 15.2761 8.43675L15.7757 9.45152C16.3064 10.5293 15.8628 11.8334 14.7849 12.364C14.7006 12.4056 14.6137 12.4416 14.5246 12.4719L13.4538 12.8361C13.1632 12.935 12.935 13.1632 12.8361 13.4538L12.4719 14.5246C12.085 15.662 10.8493 16.2704 9.71179 15.8835C9.6228 15.8532 9.53586 15.8172 9.45154 15.7757L8.43677 15.2761C8.1614 15.1405 7.83865 15.1405 7.56328 15.2761L6.54852 15.7757C5.47065 16.3064 4.16664 15.8628 3.63595 14.7849C3.59442 14.7006 3.55841 14.6136 3.52813 14.5246L3.16388 13.4538C3.06502 13.1632 2.8368 12.935 2.54619 12.8361L1.47542 12.4719C0.337985 12.0849 -0.270417 10.8492 0.116505 9.71178C0.146786 9.62278 0.182803 9.53585 0.224326 9.45152L0.723917 8.43675C0.859504 8.16139 0.859504 7.83864 0.723917 7.56327L0.224326 6.5485C-0.306362 5.47063 0.137231 4.16663 1.21511 3.63594C1.29946 3.59441 1.38641 3.55839 1.47542 3.52812L2.54619 3.16387C2.8368 3.06501 3.06502 2.83679 3.16388 2.54618L3.52813 1.47541C3.91505 0.33797 5.15079 -0.270431 6.28822 0.11649Z" fill="url(#paint0_linear_334_172)"/>
<path d="M6.95264 4C6.95264 3.44772 7.40035 3 7.95264 3C8.50492 3 8.95264 3.44772 8.95264 4V9C8.95264 9.55228 8.50492 10 7.95264 10C7.40035 10 6.95264 9.55228 6.95264 9V4Z" fill="#68584D"/>
<path d="M6.95264 12C6.95264 11.4477 7.40035 11 7.95264 11C8.50492 11 8.95264 11.4477 8.95264 12C8.95264 12.5523 8.50492 13 7.95264 13C7.40035 13 6.95264 12.5523 6.95264 12Z" fill="#68584D"/>
<defs>
<linearGradient id="paint0_linear_334_172" x1="4.95264" y1="-2.42969" x2="4.95264" y2="13.5703" gradientUnits="userSpaceOnUse">
<stop stop-color="#FFD950"/>
<stop offset="1" stop-color="#FFA403"/>
</linearGradient>
</defs>
</svg>
