<svg width="16" height="17" viewBox="0 0 16 17" fill="none" xmlns="http://www.w3.org/2000/svg">
<g clip-path="url(#clip0_334_246)">
<path d="M8 16.4286C12.4183 16.4286 16 12.8469 16 8.42859C16 4.01031 12.4183 0.428589 8 0.428589C3.58172 0.428589 0 4.01031 0 8.42859C0 12.8469 3.58172 16.4286 8 16.4286Z" fill="url(#paint0_linear_334_246)"/>
<path fill-rule="evenodd" clip-rule="evenodd" d="M7.95376 13.0066C7.87828 13.0066 7.80281 12.9824 7.73955 12.9341C5.91905 11.7765 4.70735 10.7655 4.10445 9.90113L4.05214 9.82579L4.01386 9.77014C3.59895 9.16414 3.11368 8.36009 3.11368 7.56444C3.11368 6.04113 4.33899 4.80624 5.85048 4.80624C6.68742 4.80624 7.43661 5.18487 7.93863 5.78143L7.95375 5.79957C8.45578 5.19255 9.21165 4.80624 10.057 4.80624C11.5685 4.80624 12.7938 6.04113 12.7938 7.56444C12.7938 8.37649 12.2883 9.1973 11.8681 9.80737L11.8554 9.82579L11.8031 9.90113C11.2002 10.7655 9.98847 11.7765 8.16797 12.9341C8.10471 12.9824 8.02924 13.0066 7.95376 13.0066Z" fill="white"/>
</g>
<defs>
<linearGradient id="paint0_linear_334_246" x1="8" y1="0.428589" x2="8" y2="16.4286" gradientUnits="userSpaceOnUse">
<stop stop-color="#FF9FB1"/>
<stop offset="1" stop-color="#FF0000"/>
</linearGradient>
<clipPath id="clip0_334_246">
<rect width="16" height="16" fill="white" transform="translate(0 0.428589)"/>
</clipPath>
</defs>
</svg>
