<svg width="16" height="17" viewBox="0 0 16 17" fill="none" xmlns="http://www.w3.org/2000/svg">
<path d="M8 16.4286C12.4183 16.4286 16 12.8469 16 8.42857C16 4.0103 12.4183 0.428574 8 0.428574C3.58172 0.428574 0 4.0103 0 8.42857C0 12.8469 3.58172 16.4286 8 16.4286Z" fill="url(#paint0_linear_334_226)"/>
<path d="M12.639 7.4463L11.9333 7.30585C11.8483 7.00517 11.7287 6.71536 11.5769 6.44221L11.9743 5.84676C12.0326 5.75931 12.0588 5.65437 12.0484 5.54978C12.0381 5.44519 11.9918 5.34742 11.9174 5.27312L11.1586 4.51357C11.0843 4.43925 10.9865 4.39296 10.8819 4.3826C10.7772 4.37224 10.6723 4.39845 10.5848 4.45676L9.98918 4.85403C9.71595 4.70229 9.42606 4.5827 9.12531 4.49766L8.9839 3.79221C8.96293 3.68946 8.90706 3.59713 8.82577 3.53086C8.74448 3.46458 8.64277 3.42845 8.53787 3.42857H7.46485C7.35996 3.42845 7.25825 3.46458 7.17696 3.53086C7.09567 3.59713 7.0398 3.68946 7.01882 3.79221L6.87833 4.49766C6.57757 4.5827 6.28768 4.70229 6.01446 4.85403L5.41884 4.45676C5.33138 4.39845 5.2264 4.37224 5.12178 4.3826C5.01717 4.39296 4.91937 4.43925 4.84505 4.51357L4.0853 5.27221C4.01095 5.34652 3.96465 5.44428 3.95429 5.54887C3.94393 5.65346 3.97014 5.7584 4.02846 5.84585L4.42584 6.4413C4.27406 6.71445 4.15444 7.00426 4.06938 7.30494L3.36374 7.4463C3.26096 7.46727 3.1686 7.52313 3.10231 7.60439C3.03602 7.68566 2.99987 7.78735 3 7.89221V8.96494C2.99987 9.0698 3.03602 9.17148 3.10231 9.25275C3.1686 9.33402 3.26096 9.38987 3.36374 9.41085L4.06756 9.5513C4.15262 9.85198 4.27224 10.1418 4.42402 10.4149L4.02664 11.0104C3.96832 11.0978 3.94211 11.2028 3.95247 11.3074C3.96283 11.412 4.00913 11.5097 4.08348 11.584L4.84232 12.3427C4.91665 12.417 5.01444 12.4633 5.11906 12.4736C5.22367 12.484 5.32865 12.4578 5.41611 12.3995L6.01173 12.0022C6.28496 12.154 6.57485 12.2735 6.8756 12.3586L7.01882 13.0649C7.0398 13.1677 7.09567 13.26 7.17696 13.3263C7.25825 13.3926 7.35996 13.4287 7.46485 13.4286H8.53787C8.64277 13.4287 8.74448 13.3926 8.82577 13.3263C8.90706 13.26 8.96293 13.1677 8.9839 13.0649L9.1244 12.3613C9.42515 12.2763 9.71504 12.1567 9.98827 12.0049L10.5839 12.4022C10.6714 12.4605 10.7763 12.4867 10.8809 12.4764C10.9856 12.466 11.0834 12.4197 11.1577 12.3454L11.9165 11.5868C11.9909 11.5124 12.0372 11.4147 12.0475 11.3101C12.0579 11.2055 12.0317 11.1006 11.9734 11.0131L11.576 10.4177C11.7278 10.1445 11.8474 9.8547 11.9324 9.55403L12.6363 9.41357C12.739 9.3926 12.8314 9.33675 12.8977 9.25548C12.964 9.17421 13.0001 9.07253 13 8.96766V7.89221C13.0003 7.78773 12.9645 7.68635 12.8987 7.60513C12.833 7.52391 12.7413 7.46782 12.639 7.4463Z" fill="white"/>
<circle cx="8" cy="8.42857" r="2" fill="#A7ADB0"/>
<defs>
<linearGradient id="paint0_linear_334_226" x1="8.00218" y1="0.583483" x2="8.00218" y2="16.2802" gradientUnits="userSpaceOnUse">
<stop stop-color="#CDD3D6"/>
<stop offset="1" stop-color="#91979A"/>
</linearGradient>
</defs>
</svg>
