<svg width="16" height="17" viewBox="0 0 16 17" fill="none" xmlns="http://www.w3.org/2000/svg">
<path d="M8 16.4286C12.4183 16.4286 16 12.8469 16 8.42857C16 4.0103 12.4183 0.428574 8 0.428574C3.58172 0.428574 0 4.0103 0 8.42857C0 12.8469 3.58172 16.4286 8 16.4286Z" fill="url(#paint0_linear_334_225)"/>
<path d="M8.44997 12.014L10.0416 12.884C10.2017 12.9712 10.3821 13.01 10.5623 12.9962C10.7425 12.9823 10.9154 12.9162 11.0615 12.8055C11.2076 12.6947 11.321 12.5436 11.3889 12.3693C11.4568 12.195 11.4765 12.0044 11.4458 11.819L11.1425 9.97633C11.1158 9.81508 11.1273 9.6495 11.1758 9.49388C11.2244 9.33827 11.3086 9.1973 11.4213 9.08317L12.7073 7.77821C12.8368 7.64684 12.9284 7.48038 12.9717 7.29765C13.0151 7.11491 13.0085 6.9232 12.9526 6.74419C12.8967 6.56517 12.7938 6.40601 12.6556 6.28469C12.5173 6.16337 12.3492 6.08473 12.1702 6.05768L10.3926 5.78883C10.2375 5.7649 10.0903 5.70219 9.9636 5.60607C9.83688 5.50995 9.73444 5.38329 9.66505 5.23693L8.86788 3.56231C8.78786 3.39352 8.66406 3.25141 8.51049 3.15204C8.35692 3.05266 8.17969 3 7.99886 3C7.81803 3 7.64081 3.05266 7.48724 3.15204C7.33366 3.25141 7.20987 3.39352 7.12985 3.56231L6.33495 5.23977C6.26556 5.38613 6.16312 5.51279 6.0364 5.60891C5.90968 5.70503 5.76247 5.76774 5.60736 5.79167L3.82977 6.06052C3.65081 6.08757 3.4827 6.16621 3.34444 6.28753C3.20619 6.40885 3.1033 6.56801 3.04742 6.74703C2.99155 6.92604 2.98491 7.11775 3.02825 7.30049C3.0716 7.48322 3.16321 7.64968 3.29271 7.78105L4.57873 9.08601C4.69137 9.20014 4.77561 9.34111 4.82418 9.49672C4.87275 9.65234 4.88418 9.81792 4.85749 9.97917L4.5519 11.819C4.52097 12.0046 4.54061 12.1955 4.60858 12.3702C4.67656 12.5448 4.79017 12.6961 4.93652 12.8069C5.08288 12.9178 5.25614 12.9837 5.43667 12.9974C5.6172 13.011 5.79779 12.9717 5.95797 12.884L7.54958 12.014C7.6885 11.9383 7.84297 11.8988 7.99977 11.8988C8.15657 11.8988 8.31104 11.9383 8.44997 12.014Z" fill="white"/>
<defs>
<linearGradient id="paint0_linear_334_225" x1="7.99818" y1="0.343" x2="7.99818" y2="16.4898" gradientUnits="userSpaceOnUse">
<stop stop-color="#FFF650"/>
<stop offset="1" stop-color="#FFAB17"/>
</linearGradient>
</defs>
</svg>
