<svg width="16" height="17" viewBox="0 0 16 17" fill="none" xmlns="http://www.w3.org/2000/svg">
<g clip-path="url(#clip0_334_242)">
<path d="M8 16.4286C12.4183 16.4286 16 12.8469 16 8.42859C16 4.01031 12.4183 0.428589 8 0.428589C3.58172 0.428589 0 4.01031 0 8.42859C0 12.8469 3.58172 16.4286 8 16.4286Z" fill="url(#paint0_linear_334_242)"/>
<path d="M12.7043 6.74367C12.7043 6.74367 12.7043 6.74367 12.7043 6.7186C12.3513 5.7539 11.7108 4.921 10.8694 4.33257C10.0281 3.74415 9.02641 3.42859 8 3.42859C6.97359 3.42859 5.97194 3.74415 5.13056 4.33257C4.28918 4.921 3.64867 5.7539 3.29566 6.7186C3.29566 6.7186 3.29566 6.7186 3.29566 6.74367C2.90145 7.8323 2.90145 9.02488 3.29566 10.1135C3.29566 10.1135 3.29566 10.1135 3.29566 10.1386C3.64867 11.1033 4.28918 11.9362 5.13056 12.5246C5.97194 13.113 6.97359 13.4286 8 13.4286C9.02641 13.4286 10.0281 13.113 10.8694 12.5246C11.7108 11.9362 12.3513 11.1033 12.7043 10.1386C12.7043 10.1386 12.7043 10.1386 12.7043 10.1135C13.0986 9.02488 13.0986 7.8323 12.7043 6.74367ZM4.11229 9.43151C3.93855 8.7742 3.93855 8.08297 4.11229 7.42566H5.04413C4.96399 8.09187 4.96399 8.7653 5.04413 9.43151H4.11229ZM4.5231 10.4344H5.22449C5.34209 10.8817 5.51017 11.314 5.72549 11.7232C5.23416 11.3882 4.82344 10.948 4.5231 10.4344ZM5.22449 6.42274H4.5231C4.81912 5.91079 5.22459 5.47069 5.71046 5.13398C5.50032 5.5438 5.33729 5.97614 5.22449 6.42274ZM7.48899 12.2899C6.87365 11.8379 6.44148 11.1792 6.27157 10.4344H7.48899V12.2899ZM7.48899 9.43151H6.05614C5.96265 8.76617 5.96265 8.09101 6.05614 7.42566H7.48899V9.43151ZM7.48899 6.42274H6.27157C6.44148 5.67795 6.87365 5.0193 7.48899 4.56732V6.42274ZM11.4569 6.42274H10.7555C10.6379 5.97551 10.4698 5.54314 10.2545 5.13398C10.7458 5.46899 11.1565 5.90921 11.4569 6.42274ZM8.49097 4.56732C9.10631 5.0193 9.53848 5.67795 9.70839 6.42274H8.49097V4.56732ZM8.49097 12.2899V10.4344H9.70839C9.53848 11.1792 9.10631 11.8379 8.49097 12.2899ZM9.92382 9.43151H8.49097V7.42566H9.92382C10.0173 8.09101 10.0173 8.76617 9.92382 9.43151ZM10.2695 11.7232C10.4848 11.314 10.6529 10.8817 10.7705 10.4344H11.4719C11.1715 10.948 10.7608 11.3882 10.2695 11.7232ZM11.8677 9.43151H10.9358C10.9766 9.09877 10.9967 8.76382 10.9959 8.42859C10.9965 8.09336 10.9764 7.75842 10.9358 7.42566H11.8677C12.0414 8.08297 12.0414 8.7742 11.8677 9.43151Z" fill="white"/>
</g>
<defs>
<linearGradient id="paint0_linear_334_242" x1="8" y1="0.428589" x2="8" y2="16.4286" gradientUnits="userSpaceOnUse">
<stop stop-color="#9FF3FF"/>
<stop offset="1" stop-color="#00C2FF"/>
</linearGradient>
<clipPath id="clip0_334_242">
<rect width="16" height="16" fill="white" transform="translate(0 0.428589)"/>
</clipPath>
</defs>
</svg>
