<svg width="16" height="16" viewBox="0 0 16 16" fill="none" xmlns="http://www.w3.org/2000/svg">
<g clip-path="url(#clip0_471_179)">
<path d="M6.28821 0.11649C6.37722 0.146772 6.46418 0.182789 6.5485 0.224312L7.56327 0.723903C7.83864 0.85949 8.16139 0.85949 8.43675 0.723903L9.45152 0.224312C10.5293 -0.306376 11.8334 0.137216 12.364 1.21509L12.4222 1.34351L12.4719 1.47541L12.8361 2.54618C12.935 2.83679 13.1632 3.06501 13.4538 3.16387L14.5246 3.52812C15.662 3.91504 16.2704 5.15078 15.8835 6.28821C15.8532 6.37722 15.8172 6.46418 15.7757 6.5485L15.2761 7.56327C15.1405 7.83864 15.1405 8.16139 15.2761 8.43675L15.7757 9.45152C16.3064 10.5293 15.8628 11.8334 14.7849 12.364C14.7006 12.4056 14.6136 12.4416 14.5246 12.4719L13.4538 12.8361C13.1632 12.935 12.935 13.1632 12.8361 13.4538L12.4719 14.5246C12.0849 15.662 10.8492 16.2704 9.71178 15.8835C9.62278 15.8532 9.53585 15.8172 9.45152 15.7757L8.43675 15.2761C8.16139 15.1405 7.83864 15.1405 7.56327 15.2761L6.5485 15.7757C5.47063 16.3064 4.16663 15.8628 3.63594 14.7849C3.59441 14.7006 3.55839 14.6136 3.52812 14.5246L3.16387 13.4538C3.06501 13.1632 2.83679 12.935 2.54618 12.8361L1.47541 12.4719C0.33797 12.0849 -0.270431 10.8492 0.11649 9.71178C0.146772 9.62278 0.182789 9.53585 0.224312 9.45152L0.723903 8.43675C0.85949 8.16139 0.85949 7.83864 0.723903 7.56327L0.224312 6.5485C-0.306376 5.47063 0.137216 4.16663 1.21509 3.63594C1.29944 3.59441 1.3864 3.55839 1.47541 3.52812L2.54618 3.16387C2.83679 3.06501 3.06501 2.83679 3.16387 2.54618L3.52812 1.47541C3.91504 0.33797 5.15078 -0.270431 6.28821 0.11649Z" fill="#C8C8C8"/>
<path d="M6 5V11" stroke="white" stroke-width="1.5" stroke-linecap="round" stroke-linejoin="round"/>
<path d="M10 5V11" stroke="white" stroke-width="1.5" stroke-linecap="round" stroke-linejoin="round"/>
</g>
<defs>
<clipPath id="clip0_471_179">
<rect width="16" height="16" fill="white"/>
</clipPath>
</defs>
</svg>