<svg width="16" height="16" viewBox="0 0 16 16" fill="none" xmlns="http://www.w3.org/2000/svg"><g clip-path="url(#clip0_471_173)"><path d="M6.28821 0.11649C6.37722 0.146772 6.46418 0.182789 6.5485 0.224312L7.56327 0.723903C7.83864 0.85949 8.16139 0.85949 8.43675 0.723903L9.45152 0.224312C10.5293 -0.306376 11.8334 0.137216 12.364 1.21509L12.4222 1.34351L12.4719 1.47541L12.8361 2.54618C12.935 2.83679 13.1632 3.06501 13.4538 3.16387L14.5246 3.52812C15.662 3.91504 16.2704 5.15078 15.8835 6.28821C15.8532 6.37722 15.8172 6.46418 15.7757 6.5485L15.2761 7.56327C15.1405 7.83864 15.1405 8.16139 15.2761 8.43675L15.7757 9.45152C16.3064 10.5293 15.8628 11.8334 14.7849 12.364C14.7006 12.4056 14.6136 12.4416 14.5246 12.4719L13.4538 12.8361C13.1632 12.935 12.935 13.1632 12.8361 13.4538L12.4719 14.5246C12.0849 15.662 10.8492 16.2704 9.71178 15.8835C9.62278 15.8532 9.53585 15.8172 9.45152 15.7757L8.43675 15.2761C8.16139 15.1405 7.83864 15.1405 7.56327 15.2761L6.5485 15.7757C5.47063 16.3064 4.16663 15.8628 3.63594 14.7849C3.59441 14.7006 3.55839 14.6136 3.52812 14.5246L3.16387 13.4538C3.06501 13.1632 2.83679 12.935 2.54618 12.8361L1.47541 12.4719C0.33797 12.0849 -0.270431 10.8492 0.11649 9.71178C0.146772 9.62278 0.182789 9.53585 0.224312 9.45152L0.723903 8.43675C0.85949 8.16139 0.85949 7.83864 0.723903 7.56327L0.224312 6.5485C-0.306376 5.47063 0.137216 4.16663 1.21509 3.63594C1.29944 3.59441 1.3864 3.55839 1.47541 3.52812L2.54618 3.16387C2.83679 3.06501 3.06501 2.83679 3.16387 2.54618L3.52812 1.47541C3.91504 0.33797 5.15078 -0.270431 6.28821 0.11649Z" fill="#3DD0FF"/><path d="M8 3C7.655 3 7.375 3.28 7.375 3.625V4.875C7.375 5.22 7.655 5.5 8 5.5C8.345 5.5 8.625 5.22 8.625 4.875V3.625C8.625 3.28 8.345 3 8 3ZM8 10.5C7.655 10.5 7.375 10.7794 7.375 11.125V12.375C7.375 12.7206 7.655 13 8 13C8.345 13 8.625 12.7206 8.625 12.375V11.125C8.625 10.7794 8.345 10.5 8 10.5ZM10.6512 6.2325L11.535 5.34812C11.7794 5.10437 11.7794 4.70812 11.535 4.46437C11.2913 4.22 10.8956 4.22 10.6512 4.46437L9.7675 5.34812C9.52313 5.5925 9.52313 5.98812 9.7675 6.2325C10.0119 6.47625 10.4075 6.47625 10.6512 6.2325ZM5.34812 9.7675L4.46437 10.6512C4.22 10.8956 4.22 11.2913 4.46437 11.535C4.70812 11.7794 5.10375 11.7794 5.34812 11.535L6.23187 10.6512C6.47625 10.4069 6.47625 10.0119 6.23187 9.7675C5.98813 9.52375 5.5925 9.52375 5.34812 9.7675ZM5.34812 4.46437C5.10375 4.22 4.70812 4.22 4.46437 4.46437C4.22 4.70812 4.22 5.10437 4.46437 5.34812L5.34812 6.2325C5.5925 6.47625 5.98813 6.47625 6.23187 6.2325C6.47625 5.98812 6.47625 5.5925 6.23187 5.34812L5.34812 4.46437ZM10.6512 9.7675C10.4069 9.52313 10.0119 9.52313 9.7675 9.7675C9.52313 10.0119 9.52313 10.4069 9.7675 10.6512L10.6512 11.535C10.8956 11.7794 11.2913 11.7794 11.535 11.535C11.7794 11.2913 11.7794 10.8956 11.535 10.6512L10.6512 9.7675ZM12.375 7.375H11.125C10.7794 7.375 10.5 7.655 10.5 8C10.5 8.345 10.7794 8.625 11.125 8.625H12.375C12.7206 8.625 13 8.345 13 8C13 7.655 12.7206 7.375 12.375 7.375ZM5.5 8C5.5 7.655 5.22 7.375 4.875 7.375H3.625C3.28 7.375 3 7.655 3 8C3 8.345 3.28 8.625 3.625 8.625H4.875C5.22 8.625 5.5 8.345 5.5 8Z" fill="white"><animateTransform xmlns="http://www.w3.org/2000/svg" attributeName="transform" type="rotate" dur="3s" repeatCount="indefinite" keyTimes="0;1" from="0 8 8" to="360 8 8"/></path></g><defs><clipPath id="clip0_471_173"><rect width="16" height="16" fill="white"/></clipPath></defs></svg>