<svg width="16" height="16" viewBox="0 0 16 16" fill="none" xmlns="http://www.w3.org/2000/svg">
<path d="M8.00002 16C12.3281 16 15.8368 12.4183 15.8368 8C15.8368 3.58172 12.3281 0 8.00002 0C3.67191 0 0.163284 3.58172 0.163284 8C0.163284 12.4183 3.67191 16 8.00002 16Z" fill="url(#paint0_radial_336_171)"/>
<path d="M8.00002 16C12.3281 16 15.8368 12.4183 15.8368 8C15.8368 3.58172 12.3281 0 8.00002 0C3.67191 0 0.163284 3.58172 0.163284 8C0.163284 12.4183 3.67191 16 8.00002 16Z" fill="url(#paint1_radial_336_171)"/>
<path d="M7.51019 14.6667C11.5673 14.6667 14.8571 11.3083 14.8571 7.16665C14.8571 6.3854 14.7408 5.63124 14.5224 4.92499C14.9469 5.8604 15.1837 6.90207 15.1837 7.99999C15.1837 12.05 11.9673 15.3333 7.99999 15.3333C5.65917 15.3333 3.58162 14.1917 2.26938 12.4229C3.60203 13.8083 5.45713 14.6667 7.51019 14.6667Z" fill="#C1092A" fill-opacity="0.6"/>
<path fill-rule="evenodd" clip-rule="evenodd" d="M5.18774 10.3792C5.32039 10.2542 5.52651 10.2646 5.64896 10.4C6.16733 10.9792 6.94488 11.4167 7.99998 11.4167C9.05509 11.4167 9.83264 10.9792 10.351 10.4C10.4735 10.2646 10.6796 10.2542 10.8122 10.3792C10.9449 10.5042 10.9551 10.7146 10.8326 10.85C10.1979 11.5583 9.24896 12.0833 7.99998 12.0833C6.751 12.0833 5.79998 11.5583 5.16733 10.85C5.04488 10.7146 5.05509 10.5042 5.18774 10.3792Z" fill="#894819"/>
<path d="M0.979584 3.47919C0.979584 5.45835 2.55101 7.06252 4.48979 7.06252C6.42856 7.06252 7.99999 5.45835 7.99999 3.47919H0.979584Z" fill="#202020"/>
<path d="M8.00002 3.47919C8.00002 5.45835 9.57144 7.06252 11.5102 7.06252C13.449 7.06252 15.0204 5.45835 15.0204 3.47919H8.00002Z" fill="#202020"/>
<path fill-rule="evenodd" clip-rule="evenodd" d="M0.489796 2.95831C0.218367 2.95831 0 3.18123 0 3.45831C0 3.7354 0.218367 3.95831 0.489796 3.95831H0.516327C0.74898 5.98748 2.43878 7.56248 4.4898 7.56248C6.00408 7.56248 7.32041 6.70415 8 5.43956C8.67959 6.70415 9.99592 7.56248 11.5102 7.56248C13.5612 7.56248 15.251 5.98748 15.4837 3.95831H15.5102C15.7816 3.95831 16 3.7354 16 3.45831C16 3.18123 15.7816 2.95831 15.5102 2.95831H0.489796ZM7.47347 3.95831H1.50612C1.73265 5.43331 2.98163 6.56248 4.4898 6.56248C5.99796 6.56248 7.24898 5.43331 7.47347 3.95831ZM8.52857 3.97915C8.76327 5.44373 10.0082 6.56248 11.5102 6.56248C13.0122 6.56248 14.2571 5.44373 14.4918 3.97915H8.52857Z" fill="#202020"/>
<path fill-rule="evenodd" clip-rule="evenodd" d="M11.9919 1.41458C12.3776 1.59166 12.6878 1.92916 12.849 2.18333C12.9939 2.41666 13.298 2.48333 13.5245 2.33541C13.7531 2.1875 13.8184 1.87708 13.6735 1.64583C13.4409 1.27291 12.996 0.779165 12.3919 0.502081C11.7592 0.212498 10.9694 0.174998 10.1531 0.718748C9.92657 0.870831 9.8633 1.17916 10.0123 1.41041C10.1613 1.64166 10.4633 1.70625 10.6898 1.55416C11.2021 1.21666 11.6368 1.25208 11.9919 1.41458Z" fill="#894819"/>
<path fill-rule="evenodd" clip-rule="evenodd" d="M4.00822 1.41458C3.62251 1.59166 3.3123 1.92916 3.15108 2.18333C3.00618 2.41666 2.7021 2.48333 2.47557 2.33541C2.24699 2.1875 2.18169 1.87708 2.32659 1.64583C2.55924 1.27291 3.00414 0.779165 3.60822 0.502081C4.24087 0.212498 5.03067 0.174998 5.847 0.718748C6.07353 0.870831 6.13679 1.17916 5.98781 1.41041C5.83883 1.64166 5.53679 1.70625 5.31026 1.55416C4.79802 1.21666 4.36536 1.25208 4.00822 1.41458Z" fill="#894819"/>
<defs>
<radialGradient id="paint0_radial_336_171" cx="0" cy="0" r="1" gradientUnits="userSpaceOnUse" gradientTransform="translate(5.22521 2.00002) rotate(78.7865) scale(14.2725 14.0035)">
<stop stop-color="#FFEA9F"/>
<stop offset="0.1228" stop-color="#FFE380"/>
<stop offset="0.416" stop-color="#FFD250"/>
<stop offset="0.6437" stop-color="#FFC122"/>
<stop offset="1" stop-color="#FFB422"/>
</radialGradient>
<radialGradient id="paint1_radial_336_171" cx="0" cy="0" r="1" gradientUnits="userSpaceOnUse" gradientTransform="translate(5.22521 2.00002) rotate(78.7865) scale(14.2725 14.0035)">
<stop offset="0.5573" stop-color="#E35D12" stop-opacity="0"/>
<stop offset="1" stop-color="#FF24F6" stop-opacity="0.3"/>
</radialGradient>
</defs>
</svg>
