<svg width="16" height="16" viewBox="0 0 16 16" fill="none" xmlns="http://www.w3.org/2000/svg">
<g clip-path="url(#clip0_336_192)">
<path d="M8 16C12.4183 16 16 12.4183 16 8C16 3.58172 12.4183 0 8 0C3.58172 0 0 3.58172 0 8C0 12.4183 3.58172 16 8 16Z" fill="url(#paint0_radial_336_192)"/>
<path d="M8 16C12.4183 16 16 12.4183 16 8C16 3.58172 12.4183 0 8 0C3.58172 0 0 3.58172 0 8C0 12.4183 3.58172 16 8 16Z" fill="url(#paint1_radial_336_192)"/>
<path d="M7.50002 14.6667C11.6417 14.6667 15 11.3083 15 7.16667C15 6.38542 14.8813 5.63125 14.6584 4.925C15.0917 5.86042 15.3334 6.90209 15.3334 8C15.3334 12.05 12.05 15.3333 8.00002 15.3333C5.61044 15.3333 3.48961 14.1917 2.15002 12.4229C3.51044 13.8083 5.40419 14.6667 7.50002 14.6667Z" fill="#C1092A" fill-opacity="0.6"/>
<path d="M6.33337 4.75C6.33337 5.57917 5.66254 6.25 4.83337 6.25C4.00421 6.25 3.33337 5.57917 3.33337 4.75C3.33337 3.92083 4.00421 3.25 4.83337 3.25C5.66254 3.25 6.33337 3.92083 6.33337 4.75Z" fill="white"/>
<path d="M13 4.75C13 5.57917 12.3292 6.25 11.5 6.25C10.6708 6.25 10 5.57917 10 4.75C10 3.92083 10.6708 3.25 11.5 3.25C12.3292 3.25 13 3.92083 13 4.75Z" fill="white"/>
<path d="M5.83337 4.75C5.83337 5.30208 5.38546 5.75 4.83337 5.75C4.28129 5.75 3.83337 5.30208 3.83337 4.75C3.83337 4.19792 4.28129 3.75 4.83337 3.75C5.38546 3.75 5.83337 4.19792 5.83337 4.75Z" fill="url(#paint2_linear_336_192)"/>
<path d="M12.5 4.75C12.5 5.30208 12.0521 5.75 11.5 5.75C10.9479 5.75 10.5 5.30208 10.5 4.75C10.5 4.19792 10.9479 3.75 11.5 3.75C12.0521 3.75 12.5 4.19792 12.5 4.75Z" fill="url(#paint3_linear_336_192)"/>
<path fill-rule="evenodd" clip-rule="evenodd" d="M5.64587 9.08334C5.64587 8.85417 5.83337 8.66667 6.06254 8.66667H9.93754C10.1667 8.66667 10.3542 8.85417 10.3542 9.08334C10.3542 9.31251 10.1667 9.50001 9.93754 9.50001H6.06254C5.83337 9.50001 5.64587 9.31251 5.64587 9.08334Z" fill="#894819"/>
<path fill-rule="evenodd" clip-rule="evenodd" d="M6.66663 4.24999C6.66663 4.02083 6.85413 3.83333 7.08329 3.83333H8.91663C9.14579 3.83333 9.33329 4.02083 9.33329 4.24999C9.33329 4.47916 9.14579 4.66666 8.91663 4.66666H7.08329C6.85413 4.66666 6.66663 4.47916 6.66663 4.24999Z" fill="#212121"/>
<path fill-rule="evenodd" clip-rule="evenodd" d="M0.333374 2.43749C0.333374 2.20833 0.520874 2.02083 0.750041 2.02083H7.00004C7.22921 2.02083 7.41671 2.20833 7.41671 2.43749V5.85416C7.41671 6.08333 7.22921 6.27083 7.00004 6.27083H0.750041C0.520874 6.27083 0.333374 6.08333 0.333374 5.85416V2.43749ZM1.16671 2.85416V5.43749H6.58337V2.85416H1.16671Z" fill="#212121"/>
<path fill-rule="evenodd" clip-rule="evenodd" d="M8.58337 2.43749C8.58337 2.20833 8.77087 2.02083 9.00004 2.02083H15.25C15.4792 2.02083 15.6667 2.20833 15.6667 2.43749V5.85416C15.6667 6.08333 15.4792 6.27083 15.25 6.27083H9.00004C8.77087 6.27083 8.58337 6.08333 8.58337 5.85416V2.43749ZM9.41671 2.85416V5.43749H14.8334V2.85416H9.41671Z" fill="#212121"/>
</g>
<defs>
<radialGradient id="paint0_radial_336_192" cx="0" cy="0" r="1" gradientUnits="userSpaceOnUse" gradientTransform="translate(5.16738 2.00002) rotate(78.559) scale(14.2838)">
<stop stop-color="#FFEA9F"/>
<stop offset="0.1228" stop-color="#FFE380"/>
<stop offset="0.416" stop-color="#FFD250"/>
<stop offset="0.6437" stop-color="#FFC122"/>
<stop offset="1" stop-color="#FFB422"/>
</radialGradient>
<radialGradient id="paint1_radial_336_192" cx="0" cy="0" r="1" gradientUnits="userSpaceOnUse" gradientTransform="translate(5.16738 2.00002) rotate(78.559) scale(14.2838)">
<stop offset="0.5573" stop-color="#E35D12" stop-opacity="0"/>
<stop offset="1" stop-color="#FF24F6" stop-opacity="0.3"/>
</radialGradient>
<linearGradient id="paint2_linear_336_192" x1="4.20635" y1="3.88784" x2="5.53968" y2="5.72117" gradientUnits="userSpaceOnUse">
<stop stop-color="#4E280E"/>
<stop offset="1" stop-color="#281304"/>
</linearGradient>
<linearGradient id="paint3_linear_336_192" x1="10.873" y1="3.88784" x2="12.2063" y2="5.72117" gradientUnits="userSpaceOnUse">
<stop stop-color="#4E280E"/>
<stop offset="1" stop-color="#281304"/>
</linearGradient>
<clipPath id="clip0_336_192">
<rect width="16" height="16" fill="white"/>
</clipPath>
</defs>
</svg>
