<svg width="16" height="16" viewBox="0 0 16 16" fill="none" xmlns="http://www.w3.org/2000/svg">
<path d="M8 16C12.4183 16 16 12.4183 16 8C16 3.58172 12.4183 0 8 0C3.58172 0 0 3.58172 0 8C0 12.4183 3.58172 16 8 16Z" fill="url(#paint0_linear_336_232)"/>
<path fill-rule="evenodd" clip-rule="evenodd" d="M11.3437 5.4058H10.8192V4.43271C10.8192 3.07039 9.66518 2 8.19643 2C6.72768 2 5.57366 3.07039 5.57366 4.43271V5.4058H5.04911C4.4721 5.4058 4 5.84368 4 6.37888V11.2443C4 11.7795 4.4721 12.2174 5.04911 12.2174H11.3437C11.9208 12.2174 12.3929 11.7795 12.3929 11.2443V6.37888C12.3929 5.84368 11.9208 5.4058 11.3437 5.4058ZM8.19643 9.78467C7.61942 9.78467 7.14732 9.34679 7.14732 8.81159C7.14732 8.27639 7.61942 7.83851 8.19643 7.83851C8.77344 7.83851 9.24553 8.27639 9.24553 8.81159C9.24553 9.34679 8.77344 9.78467 8.19643 9.78467ZM9.82254 5.4058H6.57031V4.43271C6.57031 3.60559 7.30469 2.92443 8.19643 2.92443C9.08817 2.92443 9.82254 3.60559 9.82254 4.43271V5.4058Z" fill="white"/>
<defs>
<linearGradient id="paint0_linear_336_232" x1="8.00218" y1="0.15491" x2="8.00218" y2="15.8516" gradientUnits="userSpaceOnUse">
<stop stop-color="#E3F0F1"/>
<stop offset="0.0001" stop-color="#FFE1E1"/>
<stop offset="1" stop-color="#6CAFFF"/>
</linearGradient>
</defs>
</svg>
