<svg width="26" height="20" viewBox="0 0 26 20" fill="none" xmlns="http://www.w3.org/2000/svg">
<g filter="url(#filter0_d_985_1232)">
<g clip-path="url(#clip0_985_1232)">
<g clip-path="url(#clip1_985_1232)">
<rect x="1" y="1" width="22" height="16" rx="2" fill="#1A47B8"/>
<path fill-rule="evenodd" clip-rule="evenodd" d="M3.34035 1H1V3.66667L20.6469 17L23 17V14.3333L3.34035 1Z" fill="white"/>
<path d="M1.78058 1L23 15.4378V17H22.2377L1 2.54726V1H1.78058Z" fill="#F93939"/>
<path fill-rule="evenodd" clip-rule="evenodd" d="M20.9048 1.00001H23.0001V3.66668C23.0001 3.66668 9.3913 12.5499 3.09532 17H1.00008V14.3333L20.9048 1.00001Z" fill="white"/>
<path d="M23 1H22.2895L1 15.4502V17H1.78058L23 2.55895V1Z" fill="#F93939"/>
<path fill-rule="evenodd" clip-rule="evenodd" d="M9.00075 1H15.0176V5.93527H23V12.0615H15.0176V17H9.00075V12.0615H1V5.93527H9.00075V1Z" fill="white"/>
<path fill-rule="evenodd" clip-rule="evenodd" d="M10.2632 1H13.7368V7.15385H23V10.8462H13.7368V17H10.2632V10.8462H1V7.15385H10.2632V1Z" fill="#F93939"/>
</g>
</g>
</g>
<defs>
<filter id="filter0_d_985_1232" x="0" y="0" width="26" height="20" filterUnits="userSpaceOnUse" color-interpolation-filters="sRGB">
<feFlood flood-opacity="0" result="BackgroundImageFix"/>
<feColorMatrix in="SourceAlpha" type="matrix" values="0 0 0 0 0 0 0 0 0 0 0 0 0 0 0 0 0 0 127 0" result="hardAlpha"/>
<feOffset dx="1" dy="1"/>
<feGaussianBlur stdDeviation="1"/>
<feComposite in2="hardAlpha" operator="out"/>
<feColorMatrix type="matrix" values="0 0 0 0 0.320529 0 0 0 0 0.335596 0 0 0 0 0.697222 0 0 0 0.25 0"/>
<feBlend mode="normal" in2="BackgroundImageFix" result="effect1_dropShadow_985_1232"/>
<feBlend mode="normal" in="SourceGraphic" in2="effect1_dropShadow_985_1232" result="shape"/>
</filter>
<clipPath id="clip0_985_1232">
<rect x="1" y="1" width="22" height="16" rx="2" fill="white"/>
</clipPath>
<clipPath id="clip1_985_1232">
<rect x="1" y="1" width="22" height="16" rx="2" fill="white"/>
</clipPath>
</defs>
</svg>
