<svg width="26" height="20" viewBox="0 0 26 20" fill="none" xmlns="http://www.w3.org/2000/svg">
<g filter="url(#filter0_d_985_1275)">
<g clip-path="url(#clip0_985_1275)">
<g clip-path="url(#clip1_985_1275)">
<rect x="1" y="1" width="22" height="16" rx="2" fill="#F93939"/>
<path d="M20.9048 1H3.09524C1.93807 1 1 1.95513 1 3.13333V14.8667C1 16.0449 1.93807 17 3.09524 17H20.9048C22.0619 17 23 16.0449 23 14.8667V3.13333C23 1.95513 22.0619 1 20.9048 1Z" fill="#F93939"/>
<path fill-rule="evenodd" clip-rule="evenodd" d="M1 5.26667H23V12.7333H1V5.26667Z" fill="#FFDA2C"/>
<path fill-rule="evenodd" clip-rule="evenodd" d="M10.4286 7.6368V10.3248C10.4286 11.0715 9.72457 11.6688 8.85714 11.6688H6.76191C5.89657 11.6667 5.19048 11.0661 5.19048 10.3227V7.63467C5.19048 7.02453 5.65981 6.51467 6.30514 6.34933C6.5 5.79467 7.09924 6.29173 7.80952 6.29173C8.524 6.29173 9.11905 5.79787 9.31391 6.3504C9.95714 6.52 10.4286 7.03093 10.4286 7.6368Z" fill="#D4AF2C"/>
<path fill-rule="evenodd" clip-rule="evenodd" d="M10.4286 8.46667H11.4762V11.6667H10.4286V8.46667ZM4.14286 8.46667H5.19048V11.6667H4.14286V8.46667Z" fill="#CBCBCB"/>
<path fill-rule="evenodd" clip-rule="evenodd" d="M10.4286 10.6H11.4762V11.6667H10.4286V10.6ZM4.14286 10.6H5.19048V11.6667H4.14286V10.6Z" fill="#1A47B8"/>
<path fill-rule="evenodd" clip-rule="evenodd" d="M10.4286 7.4H11.4762V8.46667H10.4286V7.4ZM4.14286 7.4H5.19048V8.46667H4.14286V7.4Z" fill="#D4AF2C"/>
<path fill-rule="evenodd" clip-rule="evenodd" d="M6.2381 7.4H7.28571V9H6.2381V7.4ZM8.33333 9.53333H9.38095V11.1333H8.33333V9.53333Z" fill="#AF010D"/>
<path fill-rule="evenodd" clip-rule="evenodd" d="M8.33333 7.4H9.38095V9H8.33333V7.4Z" fill="#AE6A3E"/>
<path fill-rule="evenodd" clip-rule="evenodd" d="M6.2381 9.53333H7.28571V11.1333H6.2381V9.53333Z" fill="#FFDA2C"/>
<path fill-rule="evenodd" clip-rule="evenodd" d="M7.28571 7.4L6.2381 6.33333H9.38095L8.33333 7.4H7.28571Z" fill="#AF010D"/>
<path fill-rule="evenodd" clip-rule="evenodd" d="M7.28571 5.26667H8.33333V6.33333H7.28571V5.26667Z" fill="#D4AF2C"/>
</g>
</g>
</g>
<defs>
<filter id="filter0_d_985_1275" x="0" y="0" width="26" height="20" filterUnits="userSpaceOnUse" color-interpolation-filters="sRGB">
<feFlood flood-opacity="0" result="BackgroundImageFix"/>
<feColorMatrix in="SourceAlpha" type="matrix" values="0 0 0 0 0 0 0 0 0 0 0 0 0 0 0 0 0 0 127 0" result="hardAlpha"/>
<feOffset dx="1" dy="1"/>
<feGaussianBlur stdDeviation="1"/>
<feComposite in2="hardAlpha" operator="out"/>
<feColorMatrix type="matrix" values="0 0 0 0 0.320529 0 0 0 0 0.335596 0 0 0 0 0.697222 0 0 0 0.25 0"/>
<feBlend mode="normal" in2="BackgroundImageFix" result="effect1_dropShadow_985_1275"/>
<feBlend mode="normal" in="SourceGraphic" in2="effect1_dropShadow_985_1275" result="shape"/>
</filter>
<clipPath id="clip0_985_1275">
<rect x="1" y="1" width="22" height="16" rx="2" fill="white"/>
</clipPath>
<clipPath id="clip1_985_1275">
<rect x="1" y="1" width="22" height="16" rx="2" fill="white"/>
</clipPath>
</defs>
</svg>
