<svg width="26" height="20" viewBox="0 0 26 20" fill="none" xmlns="http://www.w3.org/2000/svg">
<g filter="url(#filter0_d_985_1357)">
<g clip-path="url(#clip0_985_1357)">
<rect x="1" y="1" width="22" height="16" rx="2" fill="white"/>
<rect x="1" y="1" width="22" height="1.14872" fill="#AF010D"/>
<rect x="1" y="3.29742" width="22" height="1.14872" fill="#AF010D"/>
<rect x="1" y="5.59488" width="22" height="1.14872" fill="#AF010D"/>
<rect x="1" y="7.8923" width="22" height="1.14872" fill="#AF010D"/>
<rect x="1" y="10.1898" width="22" height="1.14872" fill="#AF010D"/>
<rect x="1" y="12.4872" width="22" height="1.14872" fill="#AF010D"/>
<rect x="1" y="14.7846" width="22" height="1.14872" fill="#AF010D"/>
<path fill-rule="evenodd" clip-rule="evenodd" d="M1 1H12.5238V10.1947H1V1Z" fill="#1A47B8"/>
<path fill-rule="evenodd" clip-rule="evenodd" d="M8.33333 5.26666H9.38095V6.33333H8.33333V5.26666Z" fill="#FFDA2C"/>
<path fill-rule="evenodd" clip-rule="evenodd" d="M8.85714 7.4C8.37943 8.04746 7.61886 8.46666 6.7619 8.46666C5.31619 8.46666 4.14286 7.272 4.14286 5.8C4.14286 4.328 5.31619 3.13333 6.7619 3.13333C7.61886 3.13333 8.37943 3.55253 8.85714 4.2H7.28571C6.41829 4.2 5.71429 4.9168 5.71429 5.8C5.71429 6.6832 6.41829 7.4 7.28571 7.4H8.85714Z" fill="#FFDA2C"/>
</g>
</g>
<defs>
<filter id="filter0_d_985_1357" x="0" y="0" width="26" height="20" filterUnits="userSpaceOnUse" color-interpolation-filters="sRGB">
<feFlood flood-opacity="0" result="BackgroundImageFix"/>
<feColorMatrix in="SourceAlpha" type="matrix" values="0 0 0 0 0 0 0 0 0 0 0 0 0 0 0 0 0 0 127 0" result="hardAlpha"/>
<feOffset dx="1" dy="1"/>
<feGaussianBlur stdDeviation="1"/>
<feComposite in2="hardAlpha" operator="out"/>
<feColorMatrix type="matrix" values="0 0 0 0 0.320529 0 0 0 0 0.335596 0 0 0 0 0.697222 0 0 0 0.25 0"/>
<feBlend mode="normal" in2="BackgroundImageFix" result="effect1_dropShadow_985_1357"/>
<feBlend mode="normal" in="SourceGraphic" in2="effect1_dropShadow_985_1357" result="shape"/>
</filter>
<clipPath id="clip0_985_1357">
<rect x="1" y="1" width="22" height="16" rx="2" fill="white"/>
</clipPath>
</defs>
</svg>
