<svg width="26" height="20" viewBox="0 0 26 20" fill="none" xmlns="http://www.w3.org/2000/svg">
<g filter="url(#filter0_d_985_1303)">
<g clip-path="url(#clip0_985_1303)">
<rect x="1" y="1" width="22" height="16" rx="2" fill="#249F58"/>
<path fill-rule="evenodd" clip-rule="evenodd" d="M12 3.13334L19.8571 9L12 14.8667L4.14286 9" fill="#FFDA2C"/>
<path d="M12 12.7333C14.025 12.7333 15.6667 11.0619 15.6667 9C15.6667 6.93814 14.025 5.26667 12 5.26667C9.97496 5.26667 8.33333 6.93814 8.33333 9C8.33333 11.0619 9.97496 12.7333 12 12.7333Z" fill="#1A47B8"/>
<path fill-rule="evenodd" clip-rule="evenodd" d="M10.4286 10.6V11.6667H11.4762V10.6H10.4286ZM12.5238 10.6V11.6667H13.5714V10.6H12.5238Z" fill="white"/>
<path fill-rule="evenodd" clip-rule="evenodd" d="M9.38095 7.4C9.38095 7.4 11.7528 7.82667 13.4625 8.5712L15.6667 9.53333" fill="white"/>
<path d="M9.38095 7.4C9.38095 7.4 11.7528 7.82667 13.4625 8.5712L15.6667 9.53333" stroke="white"/>
</g>
</g>
<defs>
<filter id="filter0_d_985_1303" x="0" y="0" width="26" height="20" filterUnits="userSpaceOnUse" color-interpolation-filters="sRGB">
<feFlood flood-opacity="0" result="BackgroundImageFix"/>
<feColorMatrix in="SourceAlpha" type="matrix" values="0 0 0 0 0 0 0 0 0 0 0 0 0 0 0 0 0 0 127 0" result="hardAlpha"/>
<feOffset dx="1" dy="1"/>
<feGaussianBlur stdDeviation="1"/>
<feComposite in2="hardAlpha" operator="out"/>
<feColorMatrix type="matrix" values="0 0 0 0 0.320529 0 0 0 0 0.335596 0 0 0 0 0.697222 0 0 0 0.25 0"/>
<feBlend mode="normal" in2="BackgroundImageFix" result="effect1_dropShadow_985_1303"/>
<feBlend mode="normal" in="SourceGraphic" in2="effect1_dropShadow_985_1303" result="shape"/>
</filter>
<clipPath id="clip0_985_1303">
<rect x="1" y="1" width="22" height="16" rx="2" fill="white"/>
</clipPath>
</defs>
</svg>
