<svg width="26" height="20" viewBox="0 0 26 20" fill="none" xmlns="http://www.w3.org/2000/svg">
<g filter="url(#filter0_d_985_1250)">
<g clip-path="url(#clip0_985_1250)">
<rect x="1" y="1" width="22" height="16" rx="2" fill="#F93939"/>
<path fill-rule="evenodd" clip-rule="evenodd" d="M1 1H8V17H1V1Z" fill="#249F58"/>
<path d="M8.33333 11.6667C10.0691 11.6667 11.4762 10.234 11.4762 8.46667C11.4762 6.69936 10.0691 5.26667 8.33333 5.26667C6.59758 5.26667 5.19048 6.69936 5.19048 8.46667C5.19048 10.234 6.59758 11.6667 8.33333 11.6667Z" fill="#FFDA2C"/>
<path fill-rule="evenodd" clip-rule="evenodd" d="M10.4286 9.53333V6.33333H6.2381V9.53333C6.2381 10.1221 7.17571 10.6 8.33333 10.6C9.49095 10.6 10.4286 10.1221 10.4286 9.53333Z" fill="#F93939"/>
<path fill-rule="evenodd" clip-rule="evenodd" d="M7.28571 7.4H9.38095V9.53333H7.28571V7.4Z" fill="white"/>
<path fill-rule="evenodd" clip-rule="evenodd" d="M7.28571 7.4H8.33333V8.46667H7.28571V7.4ZM8.33333 8.46667H9.38095V9.53333H8.33333V8.46667Z" fill="#1A47B8"/>
</g>
</g>
<defs>
<filter id="filter0_d_985_1250" x="0" y="0" width="26" height="20" filterUnits="userSpaceOnUse" color-interpolation-filters="sRGB">
<feFlood flood-opacity="0" result="BackgroundImageFix"/>
<feColorMatrix in="SourceAlpha" type="matrix" values="0 0 0 0 0 0 0 0 0 0 0 0 0 0 0 0 0 0 127 0" result="hardAlpha"/>
<feOffset dx="1" dy="1"/>
<feGaussianBlur stdDeviation="1"/>
<feComposite in2="hardAlpha" operator="out"/>
<feColorMatrix type="matrix" values="0 0 0 0 0.320529 0 0 0 0 0.335596 0 0 0 0 0.697222 0 0 0 0.25 0"/>
<feBlend mode="normal" in2="BackgroundImageFix" result="effect1_dropShadow_985_1250"/>
<feBlend mode="normal" in="SourceGraphic" in2="effect1_dropShadow_985_1250" result="shape"/>
</filter>
<clipPath id="clip0_985_1250">
<rect x="1" y="1" width="22" height="16" rx="2" fill="white"/>
</clipPath>
</defs>
</svg>
